<svg width="47" height="41" viewBox="0 0 47 41" fill="none" xmlns="http://www.w3.org/2000/svg">
<path d="M46.9966 40.565C46.9828 40.5254 46.9514 40.4957 46.9141 40.4818C46.8315 40.4501 46.7785 40.4363 46.7471 40.4283C46.7333 40.4026 46.7117 40.363 46.6744 40.3055C46.6645 40.2897 46.6508 40.2778 46.6351 40.2659C46.6351 40.2659 46.637 40.2659 46.639 40.2659C46.692 40.2719 46.749 40.254 46.7785 40.2065C46.806 40.1589 46.8099 40.1074 46.7785 40.0619C46.7746 40.052 46.7667 40.0401 46.7588 40.0302C46.7294 39.9926 46.694 39.9648 46.6645 39.9411C46.6429 39.9232 46.6233 39.9074 46.6115 39.8935C46.586 39.8618 46.5545 39.8341 46.5231 39.8064C46.5034 39.7885 46.4838 39.7727 46.4583 39.743C46.4484 39.7311 46.4386 39.7232 46.4268 39.7152C46.4209 39.7034 46.4131 39.6915 46.4052 39.6816C46.3816 39.6558 46.36 39.6301 46.3443 39.6122C46.3423 39.6043 46.3404 39.5786 46.3384 39.5627C46.3364 39.5171 46.3325 39.4617 46.303 39.4122C46.2677 39.3488 46.2087 39.3171 46.1655 39.2933C46.1537 39.2874 46.1341 39.2755 46.1361 39.2814C46.1321 39.2735 46.1262 39.2477 46.1223 39.2279C46.1144 39.1863 46.1046 39.1368 46.0771 39.0873C46.0496 39.0378 46.0123 39.0041 45.9808 38.9764C45.9671 38.9625 45.9474 38.9447 45.9416 38.9368C45.9258 38.911 45.9141 38.8833 45.9003 38.8575C45.8846 38.8258 45.8669 38.7941 45.8531 38.7723C45.8531 38.7644 45.8512 38.7426 45.8512 38.7129C45.8512 38.6852 45.8433 38.6594 45.8276 38.6376L45.7903 38.5802C45.7903 38.5386 45.7706 38.497 45.7353 38.4712C45.7235 38.4613 45.7117 38.4534 45.6979 38.4455C45.6881 38.4396 45.6763 38.4296 45.6685 38.4257C45.6272 38.291 45.5506 38.1801 45.4366 38.0751L45.25 37.7383C45.2264 37.6947 45.1793 37.667 45.1282 37.667H44.9553L44.9769 37.6452C45.0123 37.6413 45.0457 37.6234 45.0693 37.5957C45.1066 37.5501 45.1125 37.4887 45.083 37.4372C43.7215 34.979 42.2657 32.3702 40.7746 29.8545C40.7588 29.8287 40.7353 29.8089 40.7097 29.797C40.7117 29.7673 40.7058 29.7376 40.6901 29.7119C40.4268 29.2681 40.1616 28.8264 39.9003 28.4005C39.5643 27.6597 39.1361 26.9505 38.7628 26.3563C38.5172 25.8076 38.1871 25.2688 37.8669 24.7458C37.5447 24.2209 37.2127 23.6781 36.9612 23.1136C36.3816 22.1251 35.7137 20.9881 35.1105 19.9898C35.0869 19.8075 34.9671 19.6708 34.861 19.55C34.8355 19.5203 34.8099 19.4906 34.7903 19.4668C34.7412 19.3975 34.7117 19.3123 34.6783 19.2232C34.6272 19.0805 34.5702 18.9181 34.4229 18.8052C34.4229 18.7992 34.4229 18.7933 34.4229 18.7874C34.4229 18.7418 34.4229 18.6804 34.3856 18.619C34.2932 18.4546 34.195 18.2862 34.0418 18.1574C34.0103 18.0168 33.9416 17.8999 33.8806 17.793C33.8237 17.6959 33.7706 17.6028 33.751 17.5038C33.7471 17.48 33.7353 17.4582 33.7196 17.4404L33.6881 17.4027L33.6685 17.379C33.6606 17.3691 33.6508 17.3611 33.639 17.3532C33.6351 17.3413 33.6272 17.3294 33.6194 17.3195C33.4759 17.1393 33.3522 16.9531 33.248 16.7649C33.2284 16.7292 33.195 16.7055 33.1577 16.6975V16.6243C33.1577 16.6044 33.1537 16.5827 33.1439 16.5648C33.0791 16.4282 33.03 16.2994 32.9926 16.1726C32.9808 16.135 32.9553 16.1053 32.9219 16.0874C32.8315 16.0419 32.8237 16.0102 32.8021 15.9349C32.7805 15.8596 32.7529 15.7606 32.6469 15.6576C32.5663 15.5051 32.4858 15.3565 32.4032 15.206L32.3679 15.1426C32.3581 15.1247 32.3443 15.1089 32.3286 15.097C32.3286 15.0772 32.3207 15.0554 32.3109 15.0376C32.2245 14.8811 32.1361 14.7246 32.0496 14.5701C32.0378 14.5483 32.0201 14.5305 31.9985 14.5186C31.9985 14.4948 31.9926 14.4691 31.9789 14.4473L31.9435 14.3859C31.8708 14.2591 31.7981 14.1343 31.7254 14.0095C31.6979 13.962 31.6429 13.9342 31.5879 13.9422H31.586C31.586 13.9422 31.5899 13.9342 31.5918 13.9323C31.6194 13.8867 31.6194 13.8312 31.5918 13.7857C31.3541 13.3875 31.1302 13.0211 30.9082 12.6685C30.9042 12.6388 30.9003 12.611 30.8944 12.5813C30.8885 12.5575 30.8787 12.5377 30.863 12.5199C30.8649 12.4981 30.863 12.4743 30.8531 12.4545C30.7883 12.2901 30.6724 12.1277 30.5054 11.9732C30.4543 11.6661 30.2657 11.4146 30.1105 11.2086C30.0968 11.1888 30.0771 11.1769 30.0575 11.167C30.0535 11.1452 30.0476 11.1234 30.0339 11.1056C29.9985 11.058 29.9632 11.0085 29.9317 10.961C29.8531 10.7272 29.7235 10.539 29.5977 10.3548C29.4975 10.2102 29.4032 10.0715 29.3384 9.91902C29.3286 9.89723 29.3148 9.8794 29.2991 9.86554C29.303 9.84375 29.303 9.82196 29.2952 9.80017C29.2952 9.79819 29.2932 9.79224 29.2913 9.78828C29.2559 9.60406 29.1518 9.49908 29.0418 9.42578C29.0064 9.29108 28.9533 9.18214 28.8767 9.08904C28.7353 8.72258 28.4995 8.33829 28.1655 7.92429C28.1066 7.83515 28.0889 7.73016 28.0732 7.6014C28.0673 7.56179 28.0457 7.52613 28.0123 7.50236C27.9042 7.43105 27.861 7.37162 27.8414 7.27654C27.8374 7.26069 27.8335 7.24683 27.8256 7.23296C27.751 7.10421 27.6763 6.97743 27.6036 6.84867L27.5742 6.79717C27.5663 6.78529 27.5585 6.7734 27.5467 6.7635C27.5427 6.74963 27.5388 6.73576 27.5309 6.72388C27.419 6.52777 27.307 6.33167 27.197 6.13556C27.1871 6.11575 27.1714 6.09991 27.1537 6.08802H27.1518C27.1518 6.06425 27.1459 6.04246 27.1341 6.02265L26.914 5.63242C26.8885 5.58884 26.8433 5.56111 26.7922 5.56111H26.7569C26.7569 5.56111 26.7628 5.55517 26.7647 5.55121C26.8021 5.50565 26.806 5.44424 26.7785 5.39274L26.6252 5.12136C26.6076 5.08966 26.5781 5.06589 26.5447 5.05599L26.4877 5.03816C26.5192 4.99458 26.5211 4.93516 26.4956 4.88762L26.2716 4.49144C26.2461 4.44588 26.193 4.42013 26.1478 4.42013C26.1734 4.37655 26.1773 4.32109 26.1498 4.27553L26.03 4.06952C26.0044 4.02594 25.9592 4.00019 25.9101 4.00019H25.8099V3.96651C25.8256 3.95661 25.8414 3.94472 25.8512 3.92888C25.8846 3.88332 25.8885 3.82191 25.859 3.77437L25.751 3.59213C25.7313 3.55647 25.694 3.53666 25.6547 3.52874C25.6665 3.4911 25.6665 3.45149 25.6469 3.41781C25.4838 3.14247 25.3168 2.86713 25.1498 2.60169C25.1478 2.59377 25.1439 2.57198 25.1419 2.55613C25.1361 2.51454 25.1302 2.46105 25.1007 2.40757C25.0928 2.39568 25.0869 2.38182 25.0751 2.36003C25.0516 2.31249 25.0044 2.28476 24.9514 2.28476H24.9239C24.9474 2.22137 24.9239 2.15006 24.8669 2.1144C24.863 2.11242 24.861 2.11044 24.859 2.10846C24.859 2.09855 24.859 2.08865 24.859 2.08073C24.861 2.0312 24.8649 1.96187 24.8276 1.89651C24.8099 1.86481 24.7883 1.8351 24.7687 1.80539C24.7529 1.78161 24.7353 1.75784 24.7215 1.73407L24.6586 1.62513C24.6331 1.57957 24.5801 1.54985 24.529 1.5558C24.4091 1.56372 24.3306 1.61126 24.2814 1.64494L24.2029 1.48845L24.3011 1.29036C24.3109 1.28244 24.3207 1.27253 24.3286 1.26263C24.3541 1.22697 24.364 1.18141 24.3522 1.13981C24.3443 1.1101 24.3325 1.08237 24.3207 1.06058C24.3089 1.03681 24.2972 1.01106 24.2873 0.985306C24.2716 0.945689 24.2539 0.906071 24.2323 0.868435C24.2048 0.822875 24.1734 0.783258 24.1419 0.747602C24.1007 0.700061 24.0378 0.696099 23.9828 0.723832H23.7981V0.707985C23.7981 0.696099 23.7981 0.686195 23.7942 0.67431L23.7471 0.484147C23.7471 0.484147 23.7529 0.484147 23.7549 0.482166C23.7805 0.474242 23.8197 0.462357 23.8551 0.412835C23.8885 0.367275 23.8905 0.305868 23.861 0.256347C23.8178 0.187016 23.7687 0.131552 23.7215 0.0840113C23.6842 0.0443939 23.6331 -0.00710861 23.5486 0.000814856C23.4641 0.0107192 23.4249 0.0800496 23.3974 0.12561C23.3777 0.161265 23.3561 0.188997 23.3384 0.212768C23.3168 0.242481 23.2972 0.268232 23.2854 0.292002C23.2539 0.349448 23.2382 0.395008 23.2264 0.430663C23.2205 0.44651 23.2166 0.462357 23.2087 0.478204C23.2009 0.494051 23.1911 0.509898 23.1793 0.527726C23.1596 0.55942 23.138 0.599037 23.1203 0.634693C23.1125 0.640635 23.1027 0.646578 23.0928 0.654501C23.0535 0.680252 22.9946 0.721851 22.9553 0.793162C22.9514 0.801085 22.9474 0.809009 22.9455 0.816932C22.9455 0.820894 22.9435 0.822875 22.9416 0.826837C22.9416 0.830798 22.9376 0.83476 22.9376 0.838722C22.9298 0.864473 22.9239 0.892205 22.9199 0.921918C22.916 0.949651 22.9121 0.975402 22.9042 0.989268C22.8885 1.017 22.8748 1.04671 22.859 1.07841C22.8453 1.10812 22.8296 1.13783 22.8139 1.16953C22.8001 1.19528 22.7863 1.22301 22.7726 1.25272C22.7588 1.28244 22.7431 1.31413 22.7254 1.34582C22.7196 1.35573 22.7019 1.37356 22.6881 1.3894C22.6606 1.41912 22.6252 1.45477 22.5997 1.50231C22.584 1.53203 22.5683 1.56372 22.5526 1.59739C22.5388 1.62513 22.5251 1.65286 22.5113 1.68059C22.4956 1.70832 22.4799 1.74002 22.4641 1.76973C22.4504 1.79944 22.4347 1.82717 22.419 1.85689C22.4032 1.88462 22.3895 1.91235 22.3757 1.94008C22.362 1.9698 22.3463 1.99951 22.3306 2.02922C22.3168 2.05299 22.3011 2.07478 22.2854 2.09657C22.2638 2.12629 22.2421 2.156 22.2225 2.18967C22.1989 2.23127 22.1871 2.27485 22.1753 2.31249C22.1675 2.33824 22.1616 2.36003 22.1537 2.37389C22.138 2.39965 22.1223 2.4254 22.1046 2.45115C22.085 2.47888 22.0673 2.50859 22.0496 2.53633C22.0378 2.55812 22.0201 2.57594 22.0044 2.59575C21.9789 2.62745 21.9514 2.65716 21.9317 2.69083C21.5545 3.29698 21.195 3.89124 20.8335 4.50927C20.8178 4.53502 20.8119 4.56473 20.8158 4.59445C20.7903 4.60633 20.7667 4.62614 20.751 4.65189C20.4524 5.16494 20.1655 5.66808 19.8748 6.19301C19.6626 6.60701 19.4249 6.99922 19.193 7.37757C19.0693 7.5816 18.9455 7.78364 18.8256 7.98965C18.804 8.02729 18.8001 8.07285 18.8158 8.11247V8.11643C18.7726 8.12237 18.7333 8.14812 18.7097 8.18774C18.5368 8.49676 18.4032 8.76417 18.2893 9.02367C18.2893 9.02763 18.2854 9.02961 18.2854 9.02961C18.2696 9.05536 18.2638 9.08507 18.2657 9.11479C18.2382 9.12667 18.2146 9.1445 18.1989 9.17025C17.7608 9.8794 17.3227 10.6084 16.8944 11.3413C16.861 11.3967 16.8708 11.47 16.918 11.5136C16.9455 11.5413 17.0044 11.5968 17.0319 11.6344C17.0201 11.6424 17.0025 11.6523 16.9769 11.6661C16.9632 11.6206 16.9258 11.5829 16.8787 11.5711C16.8197 11.5552 16.7549 11.5829 16.7235 11.6364C16.4229 12.1534 16.1243 12.6764 15.8374 13.1914C15.8139 13.233 15.8139 13.2825 15.8335 13.3241C15.8394 13.338 15.8492 13.3499 15.859 13.3598C15.8571 13.3598 15.8531 13.3598 15.8512 13.3598C15.7942 13.3499 15.7353 13.3776 15.7058 13.4291C15.472 13.8471 15.2402 14.267 15.0084 14.6929C14.9946 14.7187 14.9907 14.7484 14.9946 14.7781C14.9671 14.79 14.9435 14.8118 14.9298 14.8395C14.7942 15.0891 14.6606 15.3387 14.527 15.5863C14.5133 15.6101 14.1537 16.2241 13.7392 16.9353C13.026 18.1555 12.4799 19.0904 12.4622 19.1201C12.4445 19.1499 12.4052 19.2311 12.3679 19.3103C12.3345 19.3777 12.303 19.445 12.2893 19.4688C12.2716 19.4985 12.1753 19.6728 12.085 19.8392C12.0044 19.9858 11.9278 20.1264 11.916 20.1482C11.9121 20.1542 11.8944 20.166 11.8826 20.174C11.8473 20.1977 11.8001 20.2334 11.7687 20.2869C11.7549 20.3107 11.7215 20.3661 11.6842 20.4236L11.6606 20.4612C11.6292 20.5107 11.6331 20.5721 11.6645 20.6177L11.6233 20.6316C11.5722 20.6494 11.5329 20.7029 11.527 20.7583C11.527 20.7742 11.5231 20.7979 11.5192 20.8039C11.5054 20.8277 11.4897 20.8514 11.474 20.8752C11.4543 20.9049 11.4347 20.9346 11.419 20.9624C11.4052 20.9841 11.3895 21.0059 11.3757 21.0277C11.3541 21.0574 11.3325 21.0891 11.3148 21.1208C11.303 21.1426 11.2932 21.1664 11.2834 21.1961C11.2775 21.2139 11.2775 21.2337 11.2814 21.2535C11.2696 21.2714 11.2618 21.2892 11.2579 21.307C11.2441 21.3328 11.2284 21.3566 11.2127 21.3823C11.195 21.412 11.1773 21.4417 11.1596 21.4695C11.1518 21.4833 11.1361 21.5012 11.1184 21.519C11.0928 21.5467 11.0634 21.5764 11.0398 21.62C11.0241 21.6477 11.0064 21.6735 10.9907 21.7012C10.975 21.727 10.9573 21.7547 10.9416 21.7824C10.9258 21.8102 10.9121 21.8359 10.8983 21.8637C10.8826 21.8914 10.8689 21.9211 10.8512 21.9488C10.8433 21.9627 10.8276 21.9805 10.8099 22.0003C10.7863 22.0281 10.7569 22.0598 10.7353 22.0994C10.7215 22.1231 10.7058 22.1469 10.692 22.1727C10.6763 22.1984 10.6606 22.2222 10.6449 22.2479C10.5526 22.3509 10.5074 22.4738 10.4661 22.5807C10.4229 22.6936 10.3856 22.7907 10.307 22.8501C10.2932 22.86 10.2814 22.8739 10.2716 22.8897C10.2657 22.8996 10.2559 22.9135 10.2461 22.9274C10.2343 22.9452 10.2264 22.965 10.2225 22.9868C10.2068 23.0918 10.1891 23.175 10.1518 23.2443C9.9337 23.3671 9.86886 23.589 9.83153 23.795C9.75688 23.9257 9.66847 24.0505 9.58203 24.1694C9.45629 24.3477 9.32466 24.5319 9.22643 24.7478C9.22053 24.7617 9.2166 24.7755 9.21464 24.7914C9.20481 24.8845 9.14981 24.9538 9.07711 25.041C9.03193 25.0984 8.98281 25.1559 8.94352 25.2291C8.93369 25.247 8.9278 25.2688 8.92584 25.2906C8.92191 25.3698 8.87868 25.4213 8.80403 25.5084C8.75098 25.5699 8.69205 25.6372 8.64882 25.7283L8.60953 25.8115C8.39931 26.2552 8.19892 26.6732 7.88851 27.0436C7.86886 27.0674 7.85707 27.0971 7.85511 27.1288C7.85118 27.2477 7.79421 27.3467 7.73527 27.4339C7.71562 27.4636 7.70973 27.5012 7.71562 27.5369C7.67829 27.5428 7.64293 27.5626 7.62132 27.5943C7.55059 27.6953 7.47986 27.8063 7.44647 27.941C7.42485 27.9627 7.40324 27.9885 7.38163 28.0162C7.3502 28.0578 7.34627 28.1133 7.36788 28.1588C7.32269 28.1628 7.27751 28.1886 7.2559 28.2321C7.22053 28.2975 7.19106 28.347 7.14391 28.3827C7.11248 28.4084 7.0948 28.4461 7.09283 28.4857C7.0889 28.5907 7.05943 28.6323 6.94941 28.6917C6.91994 28.7076 6.89637 28.7353 6.88458 28.767C6.87083 28.8046 6.85707 28.8423 6.84529 28.8819C6.77849 29.078 6.70776 29.282 6.56631 29.3969C6.55256 29.4088 6.54077 29.4226 6.53291 29.4385C5.58792 31.1321 4.60953 32.8832 3.58792 34.5729C3.57417 34.5947 3.56827 34.6185 3.56827 34.6442C3.54666 34.6561 3.52702 34.6739 3.51523 34.6957L3.46415 34.7789C3.38753 34.9037 3.31287 35.0285 3.23625 35.1533C3.22446 35.1711 3.21857 35.1929 3.2166 35.2127C3.19696 35.4108 3.06729 35.5831 2.9278 35.7674C2.83153 35.8941 2.7333 36.0249 2.66454 36.1715C2.52309 36.4587 2.36592 36.7538 2.17142 37.0985C2.17142 37.1005 2.16945 37.1025 2.16749 37.1064C2.16552 37.1104 2.16356 37.1144 2.15963 37.1183C2.028 37.3521 1.89244 37.5858 1.75295 37.8255C1.73527 37.8592 1.71955 37.8928 1.7058 37.9285C1.69597 37.9523 1.68812 37.976 1.67436 37.9998L1.63507 38.0711C1.61739 38.1028 1.60167 38.1345 1.58203 38.1662C1.5781 38.1741 1.55845 38.19 1.5447 38.2019C1.51523 38.2276 1.4779 38.2613 1.45039 38.3088C1.43271 38.3385 1.417 38.3682 1.40128 38.3999C1.38753 38.4257 1.37574 38.4514 1.36002 38.4752C1.34234 38.5069 1.32662 38.5406 1.31091 38.5743C1.29912 38.598 1.28929 38.6238 1.27554 38.6456C1.24411 38.699 1.23821 38.7525 1.23232 38.7981C1.23232 38.812 1.23036 38.8337 1.23232 38.8318C1.22643 38.8377 1.20874 38.8476 1.19696 38.8555C1.15963 38.8793 1.10658 38.909 1.07318 38.9665C1.04371 39.016 1.03389 39.0675 1.028 39.1091C1.02603 39.1249 1.0221 39.1487 1.01817 39.1546C1.00049 39.1844 0.980846 39.2141 0.9612 39.2438C0.943518 39.2715 0.925837 39.2973 0.91012 39.325C0.894402 39.3488 0.876721 39.3706 0.857074 39.3923C0.831534 39.4221 0.805994 39.4538 0.786347 39.4855C0.758842 39.529 0.743125 39.5746 0.729373 39.6122C0.721514 39.636 0.713656 39.6598 0.703833 39.6736C0.684186 39.7053 0.66454 39.739 0.646858 39.7707C0.633106 39.7964 0.617389 39.8242 0.603636 39.8479C0.595778 39.8598 0.576131 39.8757 0.556485 39.8935C0.523086 39.9193 0.487723 39.949 0.458253 39.9945C0.446465 40.0124 0.426819 40.0302 0.405208 40.05L0.375738 40.0777C0.36395 40.0876 0.356092 40.1015 0.350198 40.1134C0.336446 40.1233 0.326622 40.1352 0.316799 40.149C0.299117 40.1768 0.281436 40.2005 0.263754 40.2263C0.242143 40.256 0.222497 40.2837 0.20285 40.3135C0.163558 40.3768 0.155699 40.4442 0.15177 40.4937C0.15177 40.5076 0.15177 40.5214 0.15177 40.5254C0.139982 40.5472 0.118371 40.569 0.0967599 40.5888C0.0594318 40.6245 0.0142452 40.67 0.00245736 40.7393C-0.00933046 40.8206 0.0240684 40.874 0.0437147 40.8978C0.0653257 40.9216 0.0928307 40.9394 0.124265 40.9493C0.145876 40.9652 0.171416 40.9731 0.198921 40.9751C0.208744 40.977 0.216603 40.979 0.226426 40.979C0.228391 40.979 0.23232 40.979 0.234284 40.979C0.240178 40.979 0.248037 40.983 0.253931 40.985C0.289294 40.9949 0.332516 41.0048 0.383597 41.0048C0.432713 41.0048 0.47397 40.9909 0.519157 40.9731C0.536838 40.9731 0.556485 40.9731 0.574167 40.9731H0.615424C0.654717 40.9909 0.703833 41.0127 0.762772 41.0127C0.821711 41.0127 0.872791 40.9889 0.917978 40.9592C0.929766 40.9592 0.939589 40.9592 0.951377 40.9592C1.00049 40.9592 1.04371 40.9473 1.08301 40.9374H1.13409C1.13409 40.9374 1.15766 40.9493 1.16945 40.9553C1.21071 40.979 1.26572 41.0087 1.33252 41.0087C1.39538 41.0087 1.44647 40.985 1.48772 40.9652C1.50148 40.9592 1.52112 40.9493 1.52309 40.9493C1.56238 40.9493 1.60167 40.9434 1.639 40.9394C1.66454 40.9354 1.68812 40.9315 1.70973 40.9315C1.71759 40.9315 1.73723 40.9414 1.75098 40.9473C1.79028 40.9652 1.84136 40.9869 1.90226 40.9869H1.90423C1.93173 40.9869 1.95531 40.9909 1.98085 40.9929C2.01817 40.9969 2.05354 41.0008 2.0948 41.0028C2.13212 41.0028 2.16749 40.9988 2.20481 40.9929C2.23036 40.9889 2.25786 40.9869 2.2834 40.985C2.33841 40.985 2.3836 40.9691 2.42289 40.9553C2.44057 40.9493 2.46415 40.9414 2.47397 40.9414C2.50148 40.9414 2.53094 40.9414 2.56041 40.9434C2.59578 40.9434 2.62721 40.9473 2.66454 40.9473C2.68419 40.9473 2.70383 40.9513 2.72937 40.9572C2.76474 40.9652 2.80599 40.9731 2.85118 40.9731H2.85511C2.90815 40.9731 2.95531 40.9572 2.99263 40.9454C3.01228 40.9394 3.03389 40.9315 3.04568 40.9315C3.07908 40.9315 3.11248 40.9275 3.14784 40.9255C3.17731 40.9236 3.20678 40.9216 3.22839 40.9196C3.23625 40.9196 3.25393 40.9315 3.26768 40.9374C3.30698 40.9572 3.36002 40.983 3.42289 40.983C3.42289 40.983 3.42485 40.983 3.42682 40.983C3.45432 40.983 3.48379 40.983 3.5113 40.9869C3.54666 40.9889 3.58399 40.9909 3.61739 40.9909L3.80796 40.9869C3.87279 40.9869 3.92584 40.9572 3.96513 40.9374C3.97692 40.9315 3.99656 40.9216 3.99656 40.9196C4.02407 40.9196 4.04764 40.9216 4.07515 40.9236C4.11248 40.9275 4.15177 40.9315 4.18713 40.9295C4.22643 40.9295 4.26768 40.9216 4.30698 40.9137C4.33055 40.9097 4.35413 40.9038 4.36592 40.9018C4.37181 40.9038 4.39146 40.9137 4.40324 40.9216C4.4445 40.9454 4.50344 40.979 4.57024 40.9751C4.64489 40.9751 4.70187 40.9335 4.74313 40.9038C4.74902 40.8998 4.75491 40.8958 4.76081 40.8919C4.7667 40.8958 4.77456 40.8998 4.77849 40.9038C4.81975 40.9295 4.88065 40.9632 4.95138 40.9632C5.00246 40.9632 5.04961 40.9473 5.08497 40.9335C5.10462 40.9275 5.12819 40.9196 5.13998 40.9176C5.14981 40.9176 5.17535 40.9236 5.19696 40.9275C5.23428 40.9374 5.28144 40.9473 5.33055 40.9454C5.39342 40.9454 5.4445 40.9176 5.48379 40.8978C5.49362 40.8938 5.5054 40.8879 5.51326 40.8839C5.64096 40.9097 5.76867 40.9018 5.89833 40.8562C6.03782 40.8919 6.17142 40.8899 6.30108 40.8522C6.40128 40.8404 6.50933 40.8483 6.62328 40.8582C6.81189 40.8721 7.02407 40.8899 7.2225 40.8007C7.48772 40.9057 7.76474 40.8126 7.99067 40.7393L8.00246 40.7354C8.1223 40.7314 8.24018 40.7393 8.36592 40.7473C8.48969 40.7552 8.61739 40.7651 8.72937 40.7611C8.93173 40.779 9.10462 40.7255 9.27161 40.674C9.35609 40.6482 9.43468 40.6225 9.51916 40.6086C9.61739 40.5888 9.72151 40.6027 9.82957 40.6185C9.90423 40.6284 9.98281 40.6403 10.0653 40.6403C10.0948 40.6383 10.1321 40.6284 10.1596 40.6046C10.25 40.5234 10.3541 40.5274 10.529 40.5393C10.5604 40.5413 10.5938 40.5432 10.6252 40.5452C10.6567 40.5452 10.6803 40.5393 10.7038 40.5254C10.7687 40.4858 10.8433 40.4818 10.9357 40.4798C11.03 40.4759 11.138 40.4739 11.2382 40.4283C11.4032 40.3689 11.5801 40.3689 11.7667 40.3709H11.8885C11.918 40.3709 11.9455 40.361 11.9691 40.3451C11.9946 40.3551 12.026 40.359 12.0535 40.3511C12.1557 40.3253 12.25 40.2877 12.3384 40.2481C12.472 40.258 12.5918 40.2421 12.7097 40.2005C12.8414 40.2104 12.9651 40.1788 13.0732 40.151C13.197 40.1193 13.307 40.0916 13.415 40.1193C13.4583 40.1312 13.5034 40.1193 13.5368 40.0936C13.6135 40.0322 13.7019 40.0262 13.8414 40.0223C13.9023 40.0223 13.9651 40.0183 14.028 40.0104C14.0575 40.0064 14.085 39.9926 14.1066 39.9708C14.1911 39.8856 14.2972 39.8757 14.4602 39.8638C14.5918 39.8559 14.7412 39.842 14.8787 39.7628C14.9278 39.7568 14.971 39.7489 15.0044 39.739L15.0201 39.735C15.0339 39.735 15.0476 39.739 15.0614 39.739C15.2068 39.739 15.3345 39.6796 15.4484 39.6281C15.4917 39.6083 15.5368 39.5865 15.582 39.5706C15.5899 39.5667 15.5958 39.5627 15.6036 39.5568C15.6135 39.5568 15.6252 39.5568 15.6351 39.5528C15.6488 39.5488 15.6626 39.5449 15.6763 39.5429C15.6862 39.5429 15.696 39.5389 15.7058 39.533C15.7785 39.5013 15.8551 39.4894 15.9553 39.4775C15.9612 39.4775 15.9671 39.4775 15.973 39.4775C15.9985 39.4775 16.03 39.4755 16.0594 39.4656C16.1832 39.4538 16.3129 39.4339 16.4445 39.3725C16.4759 39.3626 16.5054 39.3508 16.5368 39.3389C16.5624 39.329 16.586 39.3191 16.6115 39.3111C16.6351 39.3052 16.6586 39.3032 16.6822 39.2993C16.7215 39.2953 16.7628 39.2893 16.8001 39.2794C16.8512 39.2636 16.8924 39.2378 16.9239 39.2141C16.9396 39.2042 16.9612 39.1883 16.971 39.1863C16.9966 39.1784 17.0241 39.1745 17.0516 39.1685C17.0869 39.1606 17.1223 39.1546 17.1596 39.1428C17.1793 39.1368 17.197 39.1289 17.2146 39.119C17.2146 39.119 17.2146 39.119 17.2166 39.119C17.2362 39.1111 17.2579 39.1012 17.2775 39.0913C17.3011 39.0794 17.3247 39.0675 17.3482 39.0596C17.3738 39.0516 17.3993 39.0477 17.4249 39.0417C17.4622 39.0338 17.4995 39.0279 17.5368 39.016C17.5643 39.0061 17.584 38.9942 17.6056 38.9803L17.692 38.9506C17.692 38.9506 17.7215 38.9526 17.7333 38.9566C17.7765 38.9645 17.8355 38.9744 17.8983 38.9526C17.9317 38.9427 17.9632 38.9308 17.9946 38.9189C18.0221 38.909 18.0496 38.8991 18.0771 38.8892C18.1302 38.8714 18.1695 38.8417 18.2029 38.8179C18.2186 38.806 18.2382 38.7921 18.2461 38.7882C18.2539 38.7862 18.2795 38.7882 18.2972 38.7882C18.3384 38.7882 18.3895 38.7902 18.4425 38.7723L18.6233 38.7129C18.6822 38.6931 18.7215 38.6555 18.7549 38.6258C18.7667 38.6159 18.7824 38.6 18.7863 38.598C18.7981 38.5941 18.8217 38.5921 18.8453 38.5901C18.8826 38.5881 18.9298 38.5842 18.9789 38.5683C19.0084 38.5584 19.0398 38.5485 19.0712 38.5386C19.1007 38.5287 19.1302 38.5208 19.1596 38.5089C19.193 38.497 19.2264 38.4812 19.2598 38.4653C19.2854 38.4534 19.3089 38.4415 19.3345 38.4336C19.3875 38.4138 19.4268 38.3821 19.4583 38.3544C19.47 38.3445 19.4897 38.3286 19.4897 38.3266C19.4975 38.3266 19.5172 38.3286 19.5309 38.3306C19.5761 38.3385 19.639 38.3465 19.7019 38.3247C19.751 38.3068 19.7903 38.2771 19.8217 38.2534C19.8394 38.2415 19.8571 38.2256 19.8689 38.2217C19.8964 38.2118 19.9239 38.2019 19.9533 38.1919C19.9848 38.182 20.0182 38.1702 20.0634 38.1523C20.2618 38.0493 20.4759 37.976 20.6842 37.9027C20.9435 37.8136 21.2107 37.7205 21.4583 37.57C21.6213 37.5799 21.749 37.5006 21.8571 37.4293C21.9042 37.3996 21.9474 37.3719 21.9926 37.3501C22.138 37.3422 22.2618 37.2887 22.3738 37.1857C22.4858 37.1718 22.5761 37.1243 22.6567 37.0827C22.7313 37.043 22.7981 37.0094 22.8708 37.0054C22.8944 37.0054 22.918 36.9975 22.9396 36.9836C23.0457 36.9143 23.1675 36.8747 23.2913 36.835C23.3306 36.8232 23.36 36.7935 23.3757 36.7558L23.4091 36.7677C23.4229 36.7717 23.4386 36.7756 23.4543 36.7756C23.47 36.7756 23.4858 36.7736 23.4995 36.7677C23.5879 36.738 23.6999 36.6944 23.808 36.6231C23.9553 36.5874 24.0634 36.5082 24.1537 36.427C24.3856 36.3913 24.6174 36.3002 24.859 36.1516C25.0948 36.1219 25.2991 36.0328 25.4956 35.9456C25.5938 35.904 25.6862 35.8624 25.7805 35.8288C25.8178 35.8407 25.8551 35.8545 25.8924 35.8684C25.9808 35.9001 26.0673 35.9318 26.1577 35.9575C26.2854 36.0348 26.4209 36.0486 26.5408 36.0625C26.6017 36.0685 26.6586 36.0764 26.7137 36.0883C26.9455 36.2249 27.195 36.2368 27.4366 36.2467H27.4897C27.5388 36.2626 27.5879 36.2824 27.641 36.3042C27.7608 36.3537 27.8944 36.4092 28.0575 36.3795C28.0653 36.3834 28.0751 36.3894 28.083 36.3933C28.1203 36.4171 28.1675 36.4448 28.2284 36.4527C28.2972 36.4627 28.3561 36.4389 28.3993 36.4211C28.4072 36.4171 28.417 36.4131 28.4249 36.4111C28.4307 36.4171 28.4386 36.423 28.4445 36.427C28.4838 36.4607 28.5368 36.5062 28.6095 36.5141C28.6586 36.5201 28.7058 36.5141 28.7431 36.5062C28.7667 36.5023 28.7883 36.4983 28.8021 36.5003C28.8964 36.5102 28.9867 36.5161 29.0791 36.5221C29.2402 36.532 29.3915 36.5399 29.5467 36.5775C29.5683 36.5835 29.5919 36.5835 29.6135 36.5775C29.8237 36.5241 30.0339 36.5399 30.2559 36.5557L30.3207 36.5597C30.3443 36.5597 30.3659 36.5577 30.3875 36.5478C30.5584 36.4706 30.7451 36.4587 30.9435 36.4448C31.1302 36.4329 31.3207 36.421 31.5113 36.3517C31.5467 36.3557 31.584 36.3517 31.6194 36.3418C31.7176 36.3398 31.8256 36.3062 31.9317 36.2487C32.0575 36.2368 32.1616 36.221 32.2186 36.1734C32.25 36.1734 32.2795 36.1734 32.3089 36.1774C32.3522 36.1853 32.3974 36.1695 32.4288 36.1378C32.5133 36.0526 32.6331 36.011 32.7608 35.9655C32.8767 35.9239 32.9985 35.8803 33.1066 35.801C33.1203 35.7911 33.1302 35.7792 33.14 35.7654C33.2677 35.5732 33.2932 35.3415 33.2048 35.1434C33.1243 34.9651 32.9671 34.8443 32.7706 34.8047C32.6154 34.6719 32.4641 34.6303 32.3168 34.5907C32.2323 34.567 32.1518 34.5452 32.0693 34.5056C32.0359 34.4897 31.9966 34.4877 31.9612 34.5016C31.8335 34.5491 31.6881 34.5313 31.5054 34.4422C31.4897 34.4342 31.474 34.4303 31.4563 34.4283C31.3875 34.4224 31.3325 34.4481 31.2913 34.4679C31.2834 34.4719 31.2716 34.4758 31.2657 34.4798C31.1223 34.4362 30.9867 34.4283 30.8669 34.456C30.749 34.4679 30.637 34.4719 30.529 34.4778C30.2893 34.4897 30.0417 34.5016 29.749 34.5729C29.6645 34.5709 29.5801 34.5808 29.5074 34.5927C29.4052 34.6066 29.3168 34.6204 29.2323 34.5907C29.1989 34.5788 29.1616 34.5808 29.1302 34.5947C29.026 34.6402 28.9199 34.6601 28.8099 34.6541C28.7824 34.6541 28.7588 34.6581 28.7372 34.67C28.6528 34.7155 28.5486 34.7254 28.4406 34.7373C28.2991 34.7512 28.1419 34.767 27.9946 34.8621C27.8217 34.8938 27.6547 34.9374 27.4975 34.9829C27.4858 34.9829 27.474 34.9829 27.4641 34.9849C27.4465 34.9889 27.4288 34.9988 27.4131 35.0067L27.362 35.0226C27.1144 35.0939 26.8571 35.1691 26.6017 35.2048C26.5958 35.2048 26.5938 35.2088 26.5879 35.2107C26.582 35.2107 26.5761 35.2088 26.5702 35.2107L26.5192 35.2187C26.5192 35.2187 26.5093 35.2187 26.5034 35.2206C26.4838 35.2107 26.4641 35.2008 26.4445 35.1929C26.4229 35.183 26.3993 35.179 26.3738 35.181C26.1989 35.1989 26.0457 35.1553 25.9199 35.0443C25.8983 35.0265 25.8728 35.0146 25.8453 35.0107C25.5486 34.973 25.2677 34.8581 24.973 34.7333C24.6763 34.6105 24.3698 34.4818 24.0359 34.4362C23.8708 34.3768 23.7019 34.3114 23.5309 34.2441C23.1046 34.0757 22.6645 33.8994 22.2205 33.834C22.1321 33.8004 22.0457 33.7627 21.9592 33.7251C22.0241 33.7092 22.0869 33.6974 22.1478 33.6855C22.1616 33.6835 22.1753 33.6775 22.1871 33.6716C22.5349 33.4874 22.9023 33.3784 23.2893 33.2635C23.4641 33.212 23.641 33.1586 23.8158 33.0991C23.8237 33.0972 23.8315 33.0932 23.8394 33.0892C24.1243 32.9268 24.3856 32.7881 24.6862 32.7267C24.6999 32.7248 24.7137 32.7188 24.7274 32.7109L24.7863 32.6772C24.9848 32.5623 25.1753 32.4573 25.3757 32.4752C25.3974 32.4752 25.417 32.4752 25.4366 32.4672C25.4995 32.4435 25.5408 32.3979 25.5722 32.3642C25.582 32.3543 25.5938 32.3385 25.5879 32.3385C25.5938 32.3405 25.6017 32.3385 25.6115 32.3405C25.6508 32.3603 25.6901 32.386 25.7333 32.4217C25.7628 32.4474 25.8021 32.4573 25.8414 32.4534C25.9946 32.4316 26.1361 32.4989 26.2991 32.5742L26.3207 32.5841C26.3443 32.596 26.3718 32.6 26.3954 32.596C26.5093 32.5821 26.5781 32.6 26.6665 32.6653C26.6979 32.6891 26.7372 32.697 26.7746 32.6891C26.9042 32.6633 27.0241 32.7089 27.1616 32.7584C27.2598 32.7941 27.362 32.8317 27.4956 32.8495C27.7254 32.8495 27.9553 32.8951 28.1989 32.9426C28.5211 33.0041 28.8531 33.0694 29.193 33.0278C29.6862 33.1506 30.1812 33.117 30.6626 33.0833L30.8001 33.0734C30.8178 33.0734 30.8355 33.0674 30.8512 33.0595C30.9514 33.01 31.0437 33.0001 31.1616 33.0219C31.1793 33.0258 31.197 33.0258 31.2166 33.0219C31.2873 33.006 31.3364 32.9605 31.3718 32.9268C31.3816 32.9169 31.3954 32.903 31.3915 32.903C31.4091 32.8991 31.4327 32.8951 31.4524 32.8911C31.474 32.905 31.4995 32.9149 31.5251 32.9149C31.5368 32.9149 31.5486 32.9149 31.5604 32.911C31.6213 32.8951 31.6803 32.8753 31.7451 32.8495C31.7471 32.8495 31.749 32.8495 31.751 32.8495C31.7903 32.8456 31.8197 32.8297 31.8453 32.8139C32.4052 32.703 33.0103 32.5405 33.2579 32.0612C33.2913 32.0453 33.3168 32.0156 33.3286 31.978C33.3443 31.9284 33.3306 31.8769 33.2972 31.8393C33.2972 31.766 33.2775 31.6967 33.2382 31.6333C33.1695 31.5224 33.0418 31.4392 32.8806 31.4015C32.7844 31.3243 32.6645 31.2767 32.5251 31.2629C32.3227 31.1143 32.1243 31.0608 31.918 31.0985C31.8256 31.0905 31.7333 31.0846 31.6429 31.0786C31.4936 31.0687 31.3404 31.0608 31.193 31.041C31.0378 30.9717 30.8865 30.9638 30.7313 31.0133L30.6469 31.0291C30.4995 31.0569 30.36 31.0826 30.2343 31.0371C30.2068 31.0271 30.1793 31.0271 30.1518 31.0351C29.8964 31.1064 29.6331 31.1183 29.3541 31.1321C29.1243 31.144 28.8846 31.1559 28.6665 31.1995C28.5447 31.2094 28.4366 31.249 28.3325 31.2866C28.1989 31.3342 28.083 31.3778 27.9632 31.3461C27.9239 31.3362 27.8807 31.3441 27.8473 31.3679C27.7824 31.4134 27.7274 31.4411 27.6685 31.457C27.5329 31.457 27.4288 31.5026 27.3423 31.5541C27.2913 31.5699 27.2402 31.5798 27.1891 31.5858C27.1675 31.5798 27.1439 31.5758 27.1203 31.5739C27.0535 31.5521 26.9612 31.5758 26.8865 31.5957C26.8807 31.5957 26.8728 31.5996 26.8669 31.6016C26.7962 31.6333 26.7588 31.6511 26.7353 31.665C26.641 31.6987 26.5486 31.7343 26.4543 31.7739L26.3777 31.7819C26.364 31.7819 26.3522 31.7819 26.3384 31.7819C26.2264 31.7145 26.1066 31.6769 25.975 31.667C25.8905 31.6174 25.804 31.5937 25.7274 31.5699C25.6351 31.5442 25.5565 31.5204 25.4956 31.4649C25.47 31.4431 25.4386 31.4293 25.4052 31.4293C25.2638 31.4253 25.1302 31.3778 24.9867 31.3263C24.8315 31.2708 24.6724 31.2133 24.4897 31.2074C23.9396 30.9994 23.362 30.7993 22.8414 30.7221C22.8355 30.7162 22.8256 30.7062 22.8197 30.6983C22.7883 30.6627 22.7451 30.6131 22.6803 30.5914C22.6252 30.5735 22.5742 30.5735 22.5329 30.5755C22.5152 30.5755 22.4917 30.5755 22.4799 30.5755C22.3757 30.5399 22.2579 30.4983 22.1361 30.4547C22.0909 30.4388 22.0398 30.4468 22.0025 30.4765C21.9828 30.4923 21.9671 30.5141 21.9592 30.5399L21.9494 30.5458L21.916 30.5299L21.8767 30.4091C21.8708 30.3952 21.8649 30.3814 21.8551 30.3695C21.9239 30.3457 21.9651 30.2922 21.9966 30.2526C22.0005 30.2467 22.0044 30.2407 22.0084 30.2368C22.0162 30.2368 22.0221 30.2407 22.028 30.2427C22.0771 30.2566 22.1459 30.2764 22.2304 30.2467C22.307 30.209 22.3777 30.1635 22.4347 30.1219C22.4425 30.1159 22.4484 30.108 22.4563 30.1021C22.4661 30.0981 22.4759 30.0942 22.4838 30.0882C22.4995 30.0763 22.5152 30.0644 22.5309 30.0545C22.5585 30.0585 22.586 30.0585 22.6135 30.0585C22.6586 30.0585 22.7019 30.0347 22.7274 29.9951C22.7294 29.9912 22.7313 29.9892 22.7333 29.9852C22.7824 29.9773 22.8433 29.9575 22.916 29.9179C22.9219 29.9198 22.9298 29.9238 22.9357 29.9258C22.971 29.9377 23.0182 29.9297 23.0516 29.9119C23.1793 29.8426 23.2893 29.7851 23.4111 29.7931C23.4229 29.7931 23.4347 29.7931 23.4465 29.7931C23.6135 29.7634 23.7333 29.6802 23.8237 29.6009C24.248 29.5217 24.6429 29.3177 25.026 29.1196L25.0457 29.1097C25.2323 29.0859 25.4249 29.0502 25.584 28.9175C25.7785 28.9789 25.9396 29.0384 26.0869 29.1037C26.1085 29.1136 26.1341 29.1156 26.1577 29.1097C26.1773 29.1275 26.2009 29.1394 26.2264 29.1433C26.3659 29.1671 26.5054 29.1929 26.6429 29.2186C26.9239 29.2701 27.2029 29.3196 27.4995 29.3652C27.6095 29.3731 27.6979 29.4266 27.7962 29.49C27.8237 29.5078 27.8571 29.5157 27.8905 29.5118C28.0044 29.4959 28.0968 29.5078 28.195 29.5514C28.2205 29.5633 28.25 29.5672 28.2775 29.5613C28.3915 29.5395 28.474 29.5474 28.5702 29.591C28.5938 29.6009 28.6194 29.6049 28.6429 29.6029C28.6469 29.6029 28.6508 29.6029 28.6567 29.6029C28.6999 29.6009 28.7412 29.589 28.7726 29.5791C28.7863 29.5752 28.7981 29.5712 28.8119 29.5692C28.8178 29.5692 28.8237 29.5672 28.8296 29.5653C28.8296 29.5653 28.8315 29.5653 28.8335 29.5653C28.8414 29.5752 28.8512 29.589 28.8669 29.6049C28.8787 29.6187 28.8924 29.6306 28.9082 29.6386C28.9278 29.6485 28.9592 29.6643 28.9985 29.6683C29.0751 29.6742 29.1361 29.6386 29.1812 29.6128C29.1891 29.6088 29.2009 29.6009 29.2029 29.597C29.2972 29.6187 29.3875 29.6227 29.4759 29.6287C29.5133 29.6306 29.5526 29.6326 29.5899 29.6366C29.6233 29.6386 29.6547 29.6306 29.6803 29.6128C29.6999 29.6386 29.7254 29.6584 29.7549 29.6683C29.7785 29.6762 29.804 29.6782 29.8296 29.6722C29.9258 29.6524 30.028 29.6564 30.138 29.6643C30.2834 29.6722 30.4484 29.6821 30.6095 29.6227C30.7549 29.6405 30.8885 29.6128 31.0025 29.5811C31.0319 29.5732 31.0575 29.5534 31.0751 29.5296H31.1439C31.1577 29.5316 31.1714 29.5336 31.1832 29.5336C31.3993 29.5375 31.5997 29.4801 31.7903 29.4226C31.8885 29.3929 31.9808 29.3672 32.0751 29.3474H32.0791C32.0889 29.3493 32.1007 29.3513 32.1105 29.3513C32.1243 29.3513 32.1361 29.3513 32.1498 29.3454C32.193 29.3335 32.2854 29.2998 32.3522 29.2543C32.4013 29.2384 32.4524 29.2226 32.5015 29.2067C32.8335 29.1057 33.248 28.9809 33.3266 28.4897C33.3345 28.4481 33.3207 28.4045 33.2913 28.3728C33.2873 28.3668 33.2814 28.3629 33.2755 28.3569C33.2716 28.242 33.2186 28.1192 33.0496 28.0182C33.0319 28.0083 33.0103 28.0004 32.9907 27.9984C32.9808 27.9984 32.9691 27.9964 32.9612 27.9984C32.9553 27.9925 32.9494 27.9865 32.9435 27.9786C32.9298 27.9627 32.9121 27.9509 32.8924 27.9429L32.8099 27.9112C32.7628 27.8934 32.7195 27.8756 32.6744 27.8538C32.4425 27.7548 32.1852 27.6894 31.8708 27.6478H31.7903C31.7746 27.6399 31.7569 27.6339 31.7372 27.6319C31.3797 27.5983 31.0142 27.6042 30.6586 27.6121C30.3777 27.6181 30.1105 27.622 29.8472 27.6082C29.8197 27.6082 29.7942 27.6141 29.7706 27.626C29.6567 27.6914 29.6292 27.6834 29.5919 27.6716C29.5015 27.6418 29.4032 27.626 29.2245 27.7349C28.9435 27.727 28.5958 27.7409 28.2795 27.8835C28.0614 27.8538 27.8571 27.9231 27.6901 27.9826C27.4681 28.0024 27.2598 28.0638 27.0751 28.1311C27.0673 28.1311 27.0594 28.1311 27.0516 28.1311C27.0476 28.1311 26.808 28.1707 26.6979 28.2718C26.637 28.2935 26.5761 28.3153 26.5152 28.3332L26.4366 28.3431C26.4366 28.3431 26.4268 28.347 26.4209 28.349C26.3541 28.3312 26.2893 28.3074 26.2205 28.2797C26.1518 28.2519 26.085 28.2262 26.0142 28.2044C25.9887 28.1965 25.9612 28.1965 25.9357 28.2044C25.8649 28.2262 25.8021 28.25 25.7412 28.2718C25.7471 28.2579 25.7549 28.244 25.7569 28.2282C25.7608 28.1767 25.7372 28.1291 25.694 28.1014C25.6331 28.0598 25.5604 28.0142 25.4818 27.9766C25.4622 27.9667 25.4209 27.9647 25.3974 27.9627C25.3561 27.9627 25.3207 27.9865 25.2952 28.0202C25.2814 27.9845 25.2539 27.9528 25.2146 27.939C25.1832 27.9271 25.1557 27.9132 25.1282 27.8934C25.1105 27.8815 25.0909 27.8736 25.0693 27.8696C24.975 27.8558 24.8865 27.8142 24.8021 27.7726C24.7883 27.7647 24.7726 27.7607 24.7569 27.7607C24.7451 27.7488 24.7313 27.7369 24.7176 27.729C24.5624 27.6478 24.3856 27.5547 24.1812 27.5527L24.1282 27.525C23.916 27.4121 23.696 27.2952 23.47 27.2199C23.47 27.2199 23.4681 27.2199 23.4661 27.2199C23.3423 27.1803 23.2304 27.1565 23.1243 27.1486C22.8964 27.004 22.586 26.8317 22.25 26.7742C22.2913 26.7544 22.3306 26.7346 22.3679 26.7148C22.4229 26.6851 22.4759 26.6574 22.5309 26.6375C22.7333 26.6415 22.7863 26.6237 22.916 26.491C23.1027 26.5068 23.1439 26.491 23.2795 26.3503L23.2932 26.3365C23.3423 26.3246 23.3934 26.3166 23.4484 26.3107C23.5722 26.2949 23.7117 26.277 23.8374 26.1819C23.8649 26.174 23.8924 26.1661 23.9199 26.1582C24.0693 26.1166 24.2382 26.069 24.364 25.9244C24.5015 25.8908 24.637 25.8551 24.7726 25.8155H24.8453C24.973 25.8135 25.0928 25.8115 25.2029 25.8412C25.3875 25.9284 25.5801 25.9185 25.749 25.9086H25.7922C25.9651 25.9918 26.1478 25.9938 26.307 25.9957C26.3934 25.9957 26.474 25.9957 26.5545 26.0096C26.5663 26.0096 26.5781 26.0116 26.5899 26.0096C26.6999 25.9997 26.8139 26.0274 26.9337 26.0552C27.1046 26.0968 27.2972 26.1443 27.5054 26.0849C27.7038 26.1641 27.9789 26.2414 28.252 26.1562C28.3777 26.2018 28.4995 26.2077 28.6331 26.172C28.641 26.176 28.6508 26.18 28.6586 26.1839C28.6979 26.2037 28.7471 26.2275 28.8158 26.2315C28.9573 26.2295 29.1027 26.2196 29.2461 26.2097C29.5977 26.1859 29.9612 26.1602 30.2736 26.2552C30.3129 26.2671 30.3541 26.2612 30.3875 26.2394C30.4661 26.1899 30.5545 26.1918 30.6665 26.1958C30.7353 26.1958 30.808 26.1998 30.8865 26.1899C30.9514 26.18 31.0005 26.1443 31.0359 26.1186C31.0457 26.1106 31.0614 26.0987 31.0555 26.0987C31.0634 26.0987 31.081 26.1047 31.0928 26.1087C31.1361 26.1225 31.195 26.1423 31.2618 26.1285C31.2755 26.1265 31.2893 26.1205 31.303 26.1126C31.3581 26.0809 31.417 26.0571 31.4759 26.0334C31.4897 26.0373 31.5034 26.0393 31.5192 26.0393C31.5604 26.0393 31.6036 26.0255 31.6292 26.0175H31.6331C31.6862 25.9977 31.7451 25.9779 31.806 25.9581L31.8531 25.9423C31.8865 25.9403 31.918 25.9363 31.9533 25.9383C31.9828 25.9383 32.0044 25.9324 32.026 25.9185C32.0496 25.9185 32.0732 25.9165 32.0968 25.9086C32.1537 25.8908 32.2068 25.8769 32.2461 25.8551C32.2618 25.8551 32.2775 25.8591 32.2952 25.861C32.3148 25.865 32.3364 25.861 32.3561 25.8571C32.4209 25.8393 32.4622 25.7897 32.4936 25.7561C32.4995 25.7501 32.5054 25.7422 32.5113 25.7362C32.6606 25.7422 32.7863 25.6867 32.8924 25.5798C32.9023 25.5798 32.9121 25.5778 32.9219 25.5778C32.973 25.5738 33.0437 25.5679 33.1027 25.5164C33.1164 25.5045 33.1262 25.4906 33.1361 25.4748L33.1537 25.4411C33.1989 25.3559 33.25 25.2628 33.2775 25.1618C33.2775 25.1618 33.2775 25.1578 33.2814 25.1559C33.2814 25.1559 33.2854 25.1519 33.2873 25.1519C33.3247 25.1123 33.3345 25.0568 33.3168 25.0053C33.3129 24.9914 33.305 24.9815 33.2972 24.9697C33.1852 24.4071 32.4425 24.3179 32.0968 24.2803C31.808 24.1595 31.5624 24.1238 31.3443 24.1714C31.03 24.0664 30.6881 24.0585 30.3954 24.1516L30.2638 24.1555C30.0025 24.1634 29.7333 24.1714 29.4641 24.2605C29.2343 24.1852 29.0535 24.2526 28.8905 24.31C28.7608 24.3576 28.6508 24.3972 28.5192 24.3675C28.4956 24.3615 28.472 24.3635 28.4504 24.3675C28.3816 24.3873 28.3148 24.4071 28.2461 24.4289C27.9396 24.522 27.6488 24.6111 27.3404 24.6131C27.3286 24.6131 27.3188 24.6131 27.3089 24.6171C27.1066 24.6666 26.9101 24.724 26.7195 24.7815C26.4838 24.8528 26.2402 24.9241 25.9926 24.9756C25.971 24.9796 25.9533 24.9895 25.9357 25.0013C25.8767 25.0469 25.8099 25.0865 25.7313 25.1222L25.692 25.1341C25.6803 25.138 25.6547 25.1499 25.6449 25.1578C25.6449 25.1578 25.641 25.1598 25.639 25.1618C25.5997 25.1757 25.5604 25.1895 25.5192 25.1994C25.5015 25.1955 25.4818 25.1935 25.4641 25.1955C25.1911 25.2351 24.8669 25.1955 24.5742 25.0865C24.5604 25.0806 24.5467 25.0786 24.5309 25.0786C24.252 25.0667 24.0201 25.0509 23.7844 25.0172C23.4936 24.9281 23.2029 24.8627 22.9219 24.8013L22.8472 24.7854C22.7333 24.7577 22.6233 24.7518 22.5152 24.7458C22.364 24.7379 22.2343 24.7319 22.1243 24.6666C22.0987 24.6507 22.0673 24.6448 22.0398 24.6468C21.8983 24.6606 21.7569 24.6309 21.6095 24.5972C21.5113 24.5755 21.4091 24.5537 21.3011 24.5438C21.2932 24.5438 21.2854 24.5438 21.2775 24.5438C21.1007 24.5557 20.9278 24.5616 20.7746 24.4843C20.7628 24.4784 20.751 24.4744 20.7392 24.4725C20.6685 24.4586 20.5997 24.4546 20.5388 24.4507C20.4072 24.4427 20.3286 24.4348 20.2618 24.3694C20.2304 24.3397 20.1871 24.3259 20.1439 24.3338C19.9887 24.3595 19.8296 24.316 19.6606 24.2704C19.4799 24.2209 19.2913 24.1694 19.0869 24.1951C18.9239 24.0743 18.7412 24.0822 18.5742 24.0901H18.5113C18.2421 24.0109 17.971 23.9554 17.7058 23.902C17.3463 23.8287 17.0064 23.7593 16.6763 23.6306C16.6704 23.6286 16.6626 23.6266 16.6547 23.6246C16.586 23.6088 16.5231 23.6306 16.4779 23.6464C16.4641 23.6504 16.4465 23.6583 16.4504 23.6603C16.4425 23.6563 16.4249 23.6425 16.4131 23.6326C16.3777 23.6048 16.3364 23.5712 16.2775 23.5553C16.2618 23.5514 16.2461 23.5494 16.2323 23.5513C16.083 23.5613 15.9573 23.48 15.8119 23.385L15.7746 23.3612C15.7746 23.3612 15.7549 23.3493 15.7431 23.3453C15.4366 23.2443 15.248 23.0839 15.1675 22.8541C15.1832 22.8145 15.2441 22.7848 15.364 22.7372C15.4366 22.7095 15.5113 22.6798 15.5761 22.6342C15.6272 22.6164 15.6783 22.6045 15.7294 22.5926C15.7883 22.5787 15.8492 22.5629 15.9082 22.5411C15.9337 22.5411 15.9573 22.5411 15.9828 22.5431C16.0928 22.5471 16.2068 22.551 16.3247 22.5332C16.4524 22.5471 16.5624 22.5134 16.6586 22.4856C16.7412 22.4619 16.8119 22.4401 16.8728 22.444C17.1636 22.4955 17.4583 22.4995 17.7451 22.5035C18.1655 22.5094 18.5624 22.5154 18.9416 22.66C18.971 22.6699 19.0005 22.6718 19.03 22.6639C19.14 22.6322 19.2107 22.6382 19.2972 22.6877C19.3227 22.7035 19.3541 22.7095 19.3836 22.7055C19.5093 22.6897 19.6056 22.6976 19.6979 22.7313C19.7097 22.7352 19.7235 22.7392 19.7353 22.7392C19.8473 22.7471 19.9612 22.7907 20.081 22.8363C20.25 22.8996 20.4386 22.9729 20.6488 22.9432C20.7372 22.9809 20.8256 23.0027 20.9121 23.0225C20.9926 23.0403 21.0673 23.0581 21.1361 23.0878C21.2952 23.2106 21.474 23.2265 21.6331 23.2384C21.6626 23.2404 21.6901 23.2423 21.7195 23.2463C21.7962 23.28 21.8826 23.3037 21.9867 23.3176C22.0339 23.3216 22.0791 23.3057 22.1105 23.2701L22.2441 23.2978C22.2657 23.3255 22.2972 23.3453 22.3345 23.3493C22.4602 23.3651 22.5349 23.3988 22.5938 23.4642C22.6017 23.4741 22.6135 23.482 22.6252 23.4899C22.6567 23.5098 22.6665 23.5236 22.6822 23.5474C22.7392 23.6286 22.804 23.6801 22.9553 23.688C23.2264 23.7712 23.4543 23.8108 23.6508 23.8089C23.7353 23.8643 23.8276 23.902 23.916 23.9396C23.9867 23.9693 24.0516 23.9951 24.1066 24.0287C24.1184 24.0367 24.1321 24.0426 24.1478 24.0446C24.2245 24.0624 24.2814 24.0822 24.3345 24.1001C24.4288 24.1337 24.5192 24.1634 24.6626 24.1694C24.7726 24.209 24.914 24.2189 25.0339 24.1951C25.0398 24.2011 25.0457 24.205 25.0496 24.211C25.0791 24.2387 25.1203 24.2783 25.1793 24.2922C25.2461 24.308 25.305 24.2922 25.3423 24.2863C25.3522 24.2843 25.362 24.2803 25.3541 24.2783C25.4072 24.2962 25.4661 24.2783 25.5015 24.2367C25.5368 24.1951 25.5467 24.1337 25.5211 24.0842C25.4759 23.9891 25.364 23.9178 25.2205 23.8287C25.1282 23.7712 25.0142 23.6979 24.973 23.6445C24.9376 23.5989 24.8767 23.5791 24.8197 23.5969C24.8178 23.5969 24.8139 23.5989 24.8119 23.6009C24.7824 23.5791 24.7471 23.5514 24.7235 23.5315C24.6528 23.4741 24.6095 23.4424 24.5761 23.4285C24.5152 23.4008 24.4504 23.4048 24.3875 23.4087C24.3816 23.4087 24.3738 23.4087 24.3679 23.4107C24.3659 23.4107 24.362 23.4067 24.36 23.4048C24.0673 23.2166 23.7451 23.0997 23.4307 22.9868C23.1989 22.9036 22.9789 22.8244 22.7726 22.7174C22.7647 22.7134 22.7588 22.7115 22.751 22.7095C22.6822 22.6877 22.6174 22.7035 22.5702 22.7154C22.5643 22.7154 22.5545 22.7194 22.5486 22.7214C22.4268 22.6322 22.307 22.5906 22.1655 22.5867C21.9985 22.5154 21.8276 22.4995 21.6626 22.4856L21.5977 22.4817C21.47 22.452 21.3482 22.4044 21.2186 22.3569C21.0398 22.2895 20.8551 22.2202 20.6586 22.1945C20.5879 22.1826 20.5251 22.2083 20.4779 22.2281C20.472 22.2301 20.4641 22.2341 20.4583 22.238C20.3325 22.1727 20.2107 22.1529 20.0673 22.1746C19.9533 22.1192 19.8335 22.0637 19.696 22.0439C19.6803 22.0419 19.6488 22.0439 19.6331 22.0479C19.5172 22.0716 19.4072 22.0954 19.2932 22.0796C19.1989 22.0716 19.1066 22.0499 19.0064 22.0261C18.914 22.0043 18.8197 21.9805 18.7196 21.9706C18.7038 21.9706 18.6881 21.9706 18.6744 21.9726C18.5624 21.9984 18.472 21.9924 18.364 21.9508C18.3325 21.9389 18.2991 21.9389 18.2677 21.9508C18.195 21.9766 18.1243 21.9607 18.0339 21.9409C17.9396 21.9191 17.8335 21.8953 17.7097 21.9191C17.6311 21.9231 17.5506 21.927 17.472 21.929C17.2932 21.935 17.1066 21.9409 16.9317 21.9726C16.8669 21.9785 16.8178 22.0102 16.7785 22.034C16.7647 22.0419 16.7451 22.0538 16.7431 22.0558C16.7353 22.0558 16.7137 22.0499 16.6999 22.0459C16.6567 22.034 16.5997 22.0162 16.5211 22.032C16.4131 22.0637 16.305 22.0934 16.197 22.1251C16.1243 22.0974 16.0378 22.1251 16.0025 22.137C15.9946 22.139 15.971 22.1509 15.9651 22.1548C15.9239 22.1766 15.8807 22.2004 15.8355 22.2222C15.5565 22.2935 15.3247 22.341 15.1066 22.3708C15.0791 22.3747 15.0535 22.3866 15.0339 22.4044C14.9632 22.4678 14.8806 22.5253 14.8001 22.5787C14.6174 22.7035 14.4268 22.8323 14.4032 23.0542C14.3993 23.1017 14.417 23.1453 14.4504 23.173C14.4307 23.2087 14.4268 23.2522 14.4445 23.2938C14.4759 23.3711 14.5231 23.4503 14.5899 23.5375C14.7746 23.7653 15.0417 23.8465 15.2775 23.9198C15.3934 23.9554 15.5034 23.9871 15.6115 24.0406C15.8256 24.1218 16.0378 24.1991 16.2402 24.2684C16.2736 24.2803 16.3089 24.2783 16.3404 24.2645L16.3718 24.2962C16.3875 24.312 16.4072 24.3239 16.4288 24.3298C16.9435 24.4923 17.4091 24.5992 17.8531 24.6567C17.8669 24.6567 17.8806 24.6567 17.8944 24.6567C17.9966 24.6388 18.0771 24.6567 18.1695 24.722C18.1891 24.7359 18.2146 24.7458 18.2402 24.7478C18.4858 24.7656 18.7412 24.7834 18.9651 24.8746C18.973 24.8766 18.9789 24.8805 18.9867 24.8805C19.0693 24.8983 19.1518 24.9142 19.2343 24.9261C19.2657 24.93 19.2991 24.9261 19.3286 24.9082C19.3502 24.932 19.3797 24.9479 19.4131 24.9518C19.5486 24.9697 19.6822 24.9835 19.8178 24.9954C19.8473 24.9974 19.8767 24.9914 19.9023 24.9756C19.9239 24.9954 19.9514 25.0073 19.9808 25.0093C20.0869 25.0192 20.195 25.0291 20.303 25.0429C20.4897 25.1539 20.6881 25.1935 20.8865 25.1638C20.9867 25.2153 21.0889 25.2291 21.1812 25.241C21.2638 25.2529 21.3364 25.2608 21.3993 25.2965C21.4209 25.3084 21.4445 25.3143 21.472 25.3143C21.7097 25.3084 22.0025 25.3619 22.2854 25.4134C22.4641 25.447 22.6331 25.4768 22.7805 25.4906C22.8806 25.5005 22.9808 25.5302 23.0889 25.5619C23.2854 25.6194 23.5074 25.6828 23.7372 25.6194C23.8158 25.6511 23.8924 25.6709 23.9691 25.6828C23.9514 25.6887 23.9357 25.6986 23.9219 25.7105C23.7471 25.863 23.5192 25.9442 23.2913 25.9442C23.25 25.9442 23.2087 25.9621 23.1812 25.9957C23.1027 26.0928 22.9808 26.1344 22.8414 26.1819C22.7451 26.2156 22.6449 26.2493 22.5486 26.3048C22.4091 26.3285 22.2893 26.3662 22.1793 26.4236C22.1695 26.4236 22.1537 26.4236 22.1419 26.4196C22.0987 26.4157 22.0378 26.4078 21.9769 26.4315C21.914 26.4553 21.8708 26.5028 21.8414 26.5365C21.8355 26.5425 21.8296 26.5504 21.8256 26.5563C21.7765 26.5563 21.7274 26.5643 21.6744 26.5742C21.5702 26.5266 21.4445 26.487 21.2913 26.5048C21.1243 26.4712 20.9632 26.4097 20.7942 26.3444C20.7372 26.3226 20.6803 26.3008 20.6233 26.281C20.5506 26.2394 20.4759 26.2176 20.3974 26.2117C20.3757 26.2117 20.3541 26.2117 20.3345 26.2216C20.3148 26.2156 20.2952 26.2136 20.2736 26.2156C20.248 26.2196 20.2225 26.2235 20.197 26.2295C20.1911 26.2255 20.1832 26.2196 20.1793 26.2156C20.1439 26.1879 20.0987 26.1542 20.0378 26.1423C19.973 26.1285 19.9121 26.1463 19.8689 26.1602C19.861 26.1621 19.8531 26.1641 19.8453 26.1681C19.6429 26.0492 19.4504 26.0056 19.2559 26.0373L19.197 26.0274C19.1361 26.0175 19.0751 26.0472 19.0476 26.1027L19.026 26.1463C18.9867 26.1265 18.9514 26.1146 18.918 26.1047C18.918 26.0789 18.9121 26.0552 18.9003 26.0334C18.8787 25.9957 18.8414 25.968 18.7981 25.9621C18.7235 25.9522 18.6508 25.9423 18.5761 25.9343C18.5722 25.9343 18.5683 25.9343 18.5643 25.9343C18.5604 25.9343 18.5584 25.9324 18.5545 25.9304C18.1616 25.8848 17.7608 25.8591 17.3718 25.8333L17.1793 25.8194C17.1655 25.8194 17.1537 25.8194 17.14 25.8234C16.9455 25.867 16.7412 25.8967 16.5447 25.9244C16.4366 25.9403 16.3266 25.9561 16.2186 25.972C16.0064 25.9106 15.8217 25.9799 15.6547 26.0393C15.5781 26.0671 15.5074 26.0928 15.4366 26.1067C15.415 26.1106 15.3954 26.1205 15.3777 26.1324C15.3738 26.1344 15.3718 26.1364 15.3679 26.1384C15.3345 26.1443 15.3011 26.1522 15.2657 26.1582C15.1341 26.1839 15.0457 26.2018 15.0025 26.2473C14.8433 26.2711 14.6685 26.3028 14.5211 26.4395C14.3384 26.4791 14.2166 26.6138 14.1164 26.7247C14.0869 26.7584 14.0575 26.7901 14.028 26.8178C14.0103 26.8356 13.9966 26.8574 13.9887 26.8812C13.9592 26.9862 14.0142 27.0674 14.0476 27.1149C14.0516 27.1209 14.0575 27.1288 14.0614 27.1347C14.0928 27.4636 14.4229 27.6458 14.7019 27.7013C14.7117 27.7032 14.7215 27.7033 14.7313 27.7033C14.8315 27.7052 14.9042 27.727 14.9769 27.7864C15.0025 27.8063 15.0319 27.8181 15.0634 27.8181C15.081 27.836 15.1027 27.8498 15.1282 27.8578C15.2304 27.8855 15.3364 27.8855 15.4602 27.8578C15.5034 27.8657 15.5467 27.8756 15.5899 27.8855C15.7274 27.9172 15.8689 27.9509 16.026 27.933C16.0339 27.933 16.0437 27.931 16.0516 27.9271C16.2362 27.8716 16.3856 27.8795 16.5093 27.9489C16.5309 27.9608 16.5526 27.9667 16.5761 27.9667C16.5761 27.9667 16.5801 27.9667 16.582 27.9667C16.7117 27.9608 16.8315 27.933 16.9612 27.8994C17.0909 27.9192 17.2166 27.9053 17.3482 27.8558C17.4445 27.8716 17.5329 27.8597 17.6135 27.8518C17.7058 27.8419 17.7863 27.832 17.859 27.8637C17.8806 27.8736 17.9062 27.8756 17.9298 27.8736C18.0693 27.8558 18.193 27.8003 18.305 27.7468C18.4091 27.7548 18.5368 27.7548 18.6685 27.727C18.7726 27.7389 18.8689 27.7151 18.9553 27.6894C18.9946 27.6775 19.026 27.6478 19.0437 27.6102C19.0476 27.6022 19.0457 27.5943 19.0476 27.5884C19.0732 27.6181 19.1125 27.6359 19.1518 27.6359C19.1557 27.6359 19.1596 27.6359 19.1636 27.6359C19.1812 27.6359 19.197 27.6339 19.2146 27.6359C19.2284 27.6359 19.2441 27.6359 19.2579 27.6339C19.3227 27.6201 19.3698 27.5804 19.4052 27.5507C19.4131 27.5448 19.4209 27.5369 19.4288 27.5309C19.4366 27.5329 19.4484 27.5369 19.4563 27.5408C19.5034 27.5567 19.5663 27.5804 19.637 27.5646C19.6567 27.5606 19.6763 27.5507 19.692 27.5388C19.7824 27.4675 19.8571 27.4457 19.9553 27.4576C19.9926 27.4636 20.028 27.4517 20.0575 27.4299C20.1007 27.3962 20.1419 27.3764 20.1852 27.3606C20.195 27.3625 20.2068 27.3645 20.2166 27.3645C20.2362 27.3645 20.2559 27.3606 20.2755 27.3526L20.2854 27.3487C20.3561 27.3427 20.4249 27.3368 20.5034 27.3249C20.584 27.3071 20.6194 27.2675 20.6351 27.2298C20.6803 27.2219 20.7274 27.212 20.7746 27.1981C20.808 27.1961 20.8433 27.1961 20.8767 27.1981C20.8964 27.2001 20.916 27.1981 20.9337 27.1922C20.9926 27.2199 21.0437 27.2477 21.0909 27.2813C21.1184 27.3011 21.1498 27.3091 21.1852 27.3051H21.2048C21.2939 27.2945 21.3731 27.3203 21.4425 27.3823C21.472 27.4101 21.5133 27.422 21.5526 27.416C21.6174 27.4081 21.6763 27.4259 21.7471 27.4596C21.751 27.4596 21.7549 27.4636 21.7588 27.4636C21.7628 27.4655 21.7667 27.4675 21.7706 27.4695L21.806 27.4854C21.8787 27.521 21.9612 27.5606 22.0673 27.5804C22.2127 27.5963 22.3364 27.6676 22.4661 27.7409C22.5486 27.7884 22.6351 27.8379 22.7313 27.8756C22.7392 27.8776 22.7451 27.8795 22.7529 27.8815C23.0025 27.939 23.2402 28.0479 23.4917 28.1648C23.584 28.2064 23.6763 28.25 23.7687 28.2896C23.8119 28.3074 23.861 28.3035 23.9003 28.2777L24.3306 28.4698C24.3404 28.4738 24.3522 28.4778 24.362 28.4798C24.4288 28.4916 24.4917 28.4996 24.5506 28.5035C24.6213 28.5412 24.692 28.5669 24.7588 28.5927C24.8551 28.6283 24.9474 28.664 25.0201 28.7234C25.028 28.7293 25.0359 28.7353 25.0457 28.7392C25.0005 28.7551 24.9573 28.767 24.9121 28.769C24.8787 28.769 24.8473 28.7828 24.8217 28.8066C24.7333 28.8898 24.6567 28.9254 24.5565 28.9294C24.5251 28.9294 24.4936 28.9433 24.47 28.9651C24.4111 29.0185 24.3345 29.0384 24.2461 29.0641C24.1616 29.0879 24.0653 29.1136 23.975 29.1731C23.641 29.2582 23.3581 29.3434 23.0732 29.4841C22.9003 29.5237 22.749 29.6049 22.6017 29.6841C22.5133 29.7317 22.4288 29.7772 22.3404 29.8149C22.3188 29.8228 22.305 29.8426 22.2913 29.8624H22.2186C22.2186 29.8624 22.2009 29.8584 22.193 29.8584C22.03 29.8565 21.9082 29.9218 21.7981 29.9812C21.7431 30.011 21.6901 30.0387 21.6508 30.0545C21.5585 30.0744 21.4661 30.0961 21.3738 30.1179C21.3384 30.0961 21.303 30.0763 21.2716 30.0545C21.252 30.0407 21.2304 30.0328 21.2068 30.0308C20.9573 30.003 20.7372 29.902 20.5015 29.797C20.3207 29.7158 20.1321 29.6306 19.9258 29.5772C19.914 29.5732 19.9003 29.5732 19.8865 29.5732C19.6508 29.5811 19.4249 29.5217 19.1832 29.4603C18.914 29.3909 18.6351 29.3196 18.3443 29.3454C18.1616 29.3018 17.9612 29.2582 17.751 29.3335C17.5702 29.2523 17.3698 29.2523 17.1596 29.3335C16.9455 29.2721 16.7294 29.2939 16.5192 29.3157C16.4052 29.3276 16.2991 29.3394 16.193 29.3355C16.1734 29.3355 16.1537 29.3394 16.1361 29.3454C16.1027 29.3593 16.0712 29.3731 16.0398 29.387C15.9612 29.4226 15.8885 29.4543 15.8178 29.4722C15.7883 29.4603 15.749 29.4563 15.696 29.4722L15.6685 29.4801C15.6685 29.4801 15.6606 29.4801 15.6567 29.4801C15.6194 29.4722 15.5801 29.4821 15.5486 29.5058C15.5309 29.5177 15.5133 29.5296 15.4897 29.5415C15.4622 29.5554 15.4268 29.5672 15.3836 29.5791C15.3659 29.5791 15.3482 29.5831 15.3306 29.5851C15.2913 29.5752 15.2441 29.5672 15.193 29.5811C15.1361 29.597 15.0889 29.6148 15.0555 29.6346C14.9848 29.6485 14.9278 29.6623 14.8728 29.6821C14.8571 29.6881 14.8414 29.698 14.8276 29.7099C14.7765 29.7554 14.7097 29.7752 14.6331 29.799C14.529 29.8307 14.4013 29.8683 14.2991 29.9832L14.2677 30.009C14.1714 30.0882 14.0634 30.1793 13.9946 30.2625C13.975 30.2863 13.9632 30.314 13.9612 30.3437C13.9416 30.623 14.0987 30.8707 14.3345 30.9459C14.5486 31.1163 14.7844 31.2748 15.0889 31.2609C15.25 31.247 15.4131 31.3045 15.582 31.3679C15.6095 31.3778 15.641 31.3797 15.6685 31.3698C15.7647 31.3401 15.8473 31.35 15.9376 31.3976C15.9553 31.4075 15.975 31.4134 15.9946 31.4134C16.0064 31.4134 16.0182 31.4134 16.03 31.4134C16.1085 31.4134 16.1832 31.3996 16.248 31.3896C16.3522 31.3718 16.4347 31.356 16.5133 31.3896C16.5486 31.4055 16.5918 31.4035 16.6272 31.3877C16.7333 31.3362 16.8178 31.3282 16.9101 31.354C16.9278 31.3599 16.9474 31.3619 16.9651 31.358L17.2854 31.3203C17.7353 31.2668 18.2009 31.2114 18.6645 31.1975C18.6901 31.1975 18.7156 31.1896 18.7372 31.1737C18.8414 31.1044 18.9258 31.0786 19.0201 31.0846C19.0496 31.0846 19.0771 31.0806 19.1007 31.0648C19.1852 31.0133 19.2657 31.0014 19.3797 31.0232C19.4131 31.0291 19.4484 31.0232 19.4799 31.0054C19.5702 30.9499 19.6724 30.94 19.7922 30.9261C19.859 30.9182 19.9278 30.9123 19.9966 30.8964C20.0103 30.8944 20.0241 30.8885 20.0359 30.8825C20.0889 30.8528 20.1361 30.831 20.1832 30.8132C20.197 30.8172 20.2087 30.8231 20.2245 30.8231C20.2461 30.8231 20.2657 30.8192 20.2854 30.8093C20.2893 30.8073 20.2932 30.8053 20.2972 30.8033C20.3168 30.7914 20.3384 30.7795 20.3581 30.7696L20.3738 30.7617C20.3738 30.7617 20.3816 30.7617 20.3856 30.7577C20.419 30.7518 20.4543 30.7459 20.4877 30.7399C20.4877 30.7399 20.4897 30.7399 20.4917 30.7399C20.5231 30.734 20.5447 30.7221 20.5643 30.7102C20.6036 30.7043 20.641 30.6983 20.6803 30.6924C20.7608 30.6825 20.8433 30.6726 20.9258 30.6508C20.9298 30.6508 20.9337 30.6488 20.9376 30.6468C20.9553 30.6547 20.9769 30.6567 20.9966 30.6567C21.1105 30.6508 21.195 30.6746 21.2755 30.732C21.4425 30.8568 21.6331 30.9103 21.8178 30.9618C21.9494 30.9994 22.0732 31.0331 22.1832 31.0925C22.2029 31.1024 22.2245 31.1084 22.248 31.1084C22.3561 31.1084 22.4288 31.1381 22.5093 31.2114C22.5251 31.2272 22.5467 31.2371 22.5683 31.2431C22.6095 31.253 22.6488 31.2629 22.6901 31.2728L22.7313 31.2827C22.7647 31.2906 22.8001 31.2847 22.8296 31.2688C22.8433 31.2965 22.8669 31.3203 22.8983 31.3322C22.9435 31.352 22.9808 31.3778 23.0123 31.4134C23.0516 31.457 23.1125 31.4709 23.1655 31.4491C23.197 31.4372 23.2205 31.4154 23.2362 31.3877L23.2618 31.3995C23.2618 31.4629 23.3011 31.5204 23.364 31.5382C23.7588 31.6511 24.1223 31.8136 24.5054 31.9839C24.6233 32.0374 24.7431 32.0909 24.8649 32.1424C24.8885 32.1523 24.914 32.1562 24.9376 32.1523C25.0103 32.1424 25.0791 32.1444 25.1459 32.1582C25.1341 32.1642 25.1243 32.1701 25.1125 32.176C25.0496 32.2117 24.975 32.2315 24.8983 32.2513C24.8021 32.2771 24.694 32.3048 24.5918 32.3702C24.362 32.4058 24.1616 32.5049 23.9691 32.598C23.8787 32.6416 23.7903 32.6871 23.7038 32.7208C23.637 32.7426 23.5643 32.7584 23.4936 32.7743C23.3188 32.8139 23.1243 32.8555 22.971 32.9922C22.749 33.01 22.5604 33.109 22.3777 33.2061C22.2304 33.2834 22.0909 33.3566 21.9416 33.3864C21.9317 33.3883 21.9199 33.3923 21.9101 33.3963C21.806 33.4438 21.692 33.4696 21.5702 33.4973C21.5329 33.5052 21.4956 33.5151 21.4583 33.523C21.3404 33.4894 21.2323 33.4696 21.1282 33.4616C21.081 33.4418 21.0339 33.4181 20.9867 33.3963C20.8119 33.3131 20.6213 33.2259 20.3934 33.22C20.2775 33.1586 20.1616 33.1269 20.028 33.1209C19.9042 33.0457 19.7805 33.0179 19.6272 33.0338C19.6174 33.0278 19.6076 33.0219 19.5997 33.0159C19.5643 32.9922 19.5211 32.9625 19.4622 32.9486C19.4465 32.9446 19.4288 32.9446 19.4131 32.9466C19.2972 32.9625 19.2166 32.9466 19.1203 32.8931C19.0928 32.8773 19.0614 32.8713 19.03 32.8773C18.9199 32.8931 18.8119 32.8654 18.7097 32.8337C18.692 32.8278 18.6724 32.8258 18.6528 32.8278L18.303 32.8674C18.3011 32.8495 18.2952 32.8317 18.2854 32.8159C18.2539 32.7604 18.1911 32.7327 18.1302 32.7485L17.6351 32.8733L17.6174 32.8179C17.5958 32.7505 17.527 32.7109 17.4583 32.7248C17.4091 32.7347 17.3659 32.7465 17.3266 32.7604C17.1262 32.6851 16.9278 32.7267 16.7451 32.7703C16.7353 32.7683 16.7215 32.7624 16.7117 32.7584C16.6704 32.7406 16.6135 32.7188 16.5447 32.7248C16.472 32.7327 16.419 32.7763 16.3797 32.8079C16.3698 32.8159 16.3541 32.8297 16.3443 32.8317C16.2834 32.8476 16.2186 32.8495 16.1498 32.8535C16.0398 32.8575 15.916 32.8614 15.7942 32.9268C15.7883 32.9268 15.7824 32.9268 15.7785 32.9268C15.5938 32.8595 15.2284 33.01 15.1321 33.0536C15.0496 33.0793 14.9612 33.1071 14.8728 33.1189C14.8649 33.1189 14.8571 33.1209 14.8492 33.1249C14.7785 33.1467 14.7333 33.2002 14.6999 33.2398C14.694 33.2477 14.6862 33.2556 14.6803 33.2635C14.5447 33.2635 14.3836 33.2933 14.2402 33.4379C14.0201 33.5963 14.0064 33.7885 14.0398 33.9291C14.0398 33.939 14.0359 33.9549 14.0339 33.9668C14.0221 34.0321 14.0025 34.1331 14.0673 34.2223C14.1125 34.2857 14.1793 34.3134 14.2343 34.3372C14.252 34.3451 14.2696 34.353 14.2834 34.3609C14.3797 34.4758 14.5093 34.5333 14.6783 34.5372C14.7313 34.559 14.7824 34.5868 14.8335 34.6125C14.9867 34.6917 15.1577 34.7809 15.364 34.7512C15.5015 34.8265 15.6331 34.8047 15.7412 34.7888C15.8021 34.7789 15.859 34.771 15.916 34.7769C15.9239 34.7789 15.9416 34.7908 15.9533 34.7967C15.9926 34.8205 16.0476 34.8542 16.1144 34.8562C16.1714 34.8581 16.2205 34.8423 16.2579 34.8304C16.2736 34.8245 16.2991 34.8165 16.2952 34.8165C16.5742 34.8463 16.9533 34.8879 17.2893 34.7749C17.6822 34.7393 18.0417 34.6858 18.3856 34.6125C18.5152 34.6462 18.6665 34.666 18.8315 34.5907C18.8394 34.5868 18.8492 34.5828 18.8551 34.5769C18.9533 34.5056 19.03 34.4798 19.1302 34.4897C19.3954 34.5075 19.7019 34.4362 20.0378 34.2758C20.083 34.2639 20.1282 34.254 20.1734 34.2441C20.2048 34.252 20.2441 34.254 20.2952 34.2362C20.3227 34.2262 20.3502 34.2144 20.3777 34.2025C20.419 34.1965 20.4602 34.1926 20.5054 34.1886C20.5506 34.1847 20.5879 34.1569 20.6095 34.1193C20.7097 34.0915 20.8119 34.0638 20.9101 34.0321C21.0418 34.0698 21.1675 34.1331 21.2834 34.2223C21.307 34.2401 21.3364 34.25 21.3659 34.25C21.5329 34.252 21.6979 34.3293 21.8708 34.4105C21.9867 34.464 22.1046 34.5214 22.2245 34.5571C22.36 34.6066 22.4975 34.6561 22.6331 34.7056C23.2029 34.9116 23.7922 35.1236 24.3482 35.395C24.3718 35.4068 24.3974 35.4108 24.4229 35.4088C24.5545 35.3969 24.6272 35.4088 24.7078 35.4683C24.8256 35.5455 24.9514 35.5851 25.1027 35.5911C25.1085 35.597 25.1125 35.603 25.1164 35.6089C25.1361 35.6346 25.1616 35.6663 25.197 35.6921C25.1557 35.7 25.1105 35.702 25.0575 35.698C25.0476 35.698 25.0378 35.698 25.028 35.698C24.8492 35.7238 24.7294 35.8129 24.6272 35.908C24.5329 35.9357 24.4307 35.9437 24.3227 35.9516H24.2972C24.2696 35.9555 24.2441 35.9655 24.2225 35.9833C24.0005 36.1556 23.692 36.2745 23.3777 36.3101C23.3423 36.3141 23.3109 36.3319 23.2873 36.3577C23.2638 36.3854 23.2343 36.4111 23.197 36.431C23.1203 36.4745 23.0221 36.4963 22.9199 36.5181C22.8865 36.526 22.8531 36.532 22.8197 36.5399C22.8139 36.5399 22.806 36.5439 22.8001 36.5458C22.7412 36.5696 22.7019 36.6112 22.6704 36.6449C22.6606 36.6568 22.6449 36.6726 22.6488 36.6726C22.6429 36.6726 22.6194 36.6706 22.6056 36.6687C22.5585 36.6627 22.4936 36.6528 22.4268 36.6805C22.4091 36.6885 22.3934 36.6984 22.3797 36.7122L22.3384 36.7578C22.3109 36.7875 22.2834 36.8172 22.2755 36.8212C22.2638 36.8251 22.2107 36.8232 22.1596 36.8212H22.1282C22.1105 36.8212 22.085 36.8232 22.0653 36.8331C22.0005 36.8628 21.9357 36.8866 21.8689 36.9123C21.7569 36.9559 21.639 36.9995 21.529 37.0668C21.4779 37.0906 21.4425 37.1302 21.415 37.1599C21.4052 37.1718 21.3895 37.1876 21.3915 37.1896C21.3836 37.1896 21.362 37.1896 21.3482 37.1896C21.303 37.1876 21.2461 37.1837 21.1871 37.2094C21.1773 37.2134 21.1695 37.2174 21.1616 37.2233C20.9887 37.3441 20.8414 37.4036 20.6979 37.4135C20.6724 37.4135 20.6488 37.4234 20.6292 37.4372C20.3974 37.5977 20.1184 37.6829 19.8256 37.774C19.749 37.7978 19.6724 37.8215 19.5899 37.8493C19.5192 37.877 19.4799 37.9344 19.4504 37.976C19.4425 37.9879 19.4347 38.0038 19.4406 37.9998C19.4288 38.0038 19.4032 38.0077 19.3816 38.0097C19.3443 38.0137 19.2972 38.0176 19.25 38.0374C19.2245 38.0473 19.197 38.0553 19.1695 38.0632C19.1361 38.0731 19.1007 38.083 19.0693 38.0969C19.0555 38.1028 19.0319 38.1048 19.0064 38.1087C18.9691 38.1127 18.9239 38.1187 18.8787 38.1365C18.8335 38.1543 18.7981 38.1781 18.7667 38.1999C18.7451 38.2137 18.7254 38.2276 18.7097 38.2335C18.6665 38.2494 18.6311 38.2732 18.5997 38.295C18.5781 38.3088 18.5565 38.3227 18.5408 38.3286L18.4622 38.3603C18.4288 38.3742 18.3973 38.3861 18.364 38.398C18.3561 38.398 18.3345 38.398 18.3188 38.398C18.2755 38.394 18.2205 38.392 18.1636 38.4118C18.1046 38.4336 18.0653 38.4732 18.0339 38.5049C18.0241 38.5148 18.0084 38.5307 18.0044 38.5346C17.9808 38.5426 17.9573 38.5465 17.9337 38.5505C17.8944 38.5564 17.8551 38.5643 17.8158 38.5782C17.7844 38.5901 17.751 38.6 17.7195 38.6099L17.6351 38.6376C17.5879 38.6535 17.5506 38.6792 17.5172 38.701L17.5113 38.705C17.4917 38.7109 17.472 38.7189 17.4504 38.7248C17.4229 38.7327 17.3954 38.7406 17.3679 38.7466C17.3345 38.7545 17.3011 38.7624 17.2696 38.7723C17.2225 38.7862 17.1852 38.808 17.1518 38.8278C17.1419 38.8337 17.1321 38.8397 17.1203 38.8456C17.1144 38.8476 17.1085 38.8516 17.1007 38.8536C17.0889 38.8575 17.0653 38.8575 17.0437 38.8575C17.0064 38.8575 16.9573 38.8595 16.9062 38.8753C16.8905 38.8813 16.8669 38.8833 16.8414 38.8853C16.804 38.8892 16.7628 38.8932 16.7196 38.907C16.696 38.915 16.6704 38.9169 16.6449 38.9209C16.6056 38.9268 16.5683 38.9328 16.5309 38.9447C16.4995 38.9546 16.4681 38.9665 16.4366 38.9784C16.4091 38.9883 16.3797 39.0001 16.3502 39.0081C16.3384 39.012 16.3266 39.016 16.3168 39.0239C16.2343 39.0754 16.1459 39.123 16.0535 39.1546C16.026 39.1348 15.9907 39.1249 15.9533 39.1289C15.9082 39.1348 15.861 39.1447 15.8237 39.1725C15.7392 39.2042 15.6528 39.2339 15.5663 39.2616C15.5545 39.2656 15.5467 39.2715 15.5368 39.2794C15.5251 39.2794 15.5152 39.2794 15.5034 39.2834C15.3443 39.3349 15.1793 39.3844 15.0123 39.428C14.9985 39.424 14.9867 39.4221 14.973 39.4181C14.9219 39.3963 14.861 39.4102 14.8217 39.4498C14.8158 39.4557 14.806 39.4617 14.7981 39.4696C14.7706 39.4696 14.7431 39.4696 14.7156 39.4696C14.6115 39.4696 14.4956 39.4656 14.3738 39.5171C14.2127 39.5389 14.0535 39.5845 13.9003 39.6281C13.6331 39.7053 13.3797 39.7786 13.1302 39.7232C13.1125 39.7192 13.0948 39.7192 13.0771 39.7232C13.0044 39.735 12.9553 39.7806 12.918 39.8143C12.9082 39.8242 12.8905 39.838 12.9042 39.8361C12.8924 39.8361 12.8689 39.8361 12.8473 39.8321C12.8099 39.8262 12.7628 39.8202 12.7097 39.8281C12.6488 39.838 12.5899 39.8499 12.529 39.8618C12.3463 39.8995 12.1734 39.9331 12.0103 39.8955C11.9769 39.8876 11.9416 39.8935 11.9101 39.9094C11.8001 39.9727 11.7156 39.9926 11.6252 39.9826C11.5977 39.9787 11.5722 39.9826 11.5486 39.9945C11.4622 40.0361 11.3875 40.0381 11.2716 40.0005C11.252 39.9945 11.2323 39.9926 11.2146 39.9945C11.1537 40.0005 11.1066 40.0282 11.0693 40.05C11.0575 40.0579 11.0378 40.0678 11.0378 40.0698C11.03 40.0698 11.0103 40.0619 10.9966 40.0579C10.9828 40.052 10.9671 40.048 10.9533 40.0441C10.914 40.0322 10.8708 40.0401 10.8374 40.0619L10.8178 40.0757C10.7883 40.052 10.749 40.0401 10.7117 40.046C10.641 40.0559 10.5722 40.0658 10.5015 40.0777C10.4268 40.0896 10.3502 40.1015 10.2736 40.1114C10.2579 40.1114 10.2421 40.1173 10.2284 40.1253C10.1557 40.1609 10.081 40.153 9.98281 40.1431C9.89637 40.1332 9.79814 40.1233 9.69205 40.1451C9.67633 40.149 9.66061 40.155 9.64686 40.1629C9.50344 40.254 9.35413 40.2719 9.19892 40.2164C9.16356 40.2045 9.12426 40.2065 9.0889 40.2223C8.94352 40.2956 8.79421 40.2798 8.62132 40.26H8.59381C8.5781 40.256 8.56041 40.256 8.5447 40.26L8.35413 40.3075C8.3168 40.2857 8.27161 40.2837 8.23232 40.3016C8.20874 40.3121 8.16356 40.3029 8.09676 40.2738L8.06336 40.26C8.028 40.2441 7.98674 40.2461 7.95138 40.262C7.79617 40.3352 7.62328 40.3253 7.43861 40.3154C7.31091 40.3075 7.17731 40.3016 7.05354 40.3194C6.98871 40.3214 6.93762 40.3511 6.89833 40.3709C6.88654 40.3788 6.8669 40.3887 6.87083 40.3887C6.86297 40.3887 6.84332 40.3788 6.82957 40.3729C6.79028 40.3551 6.73723 40.3313 6.6724 40.3352C6.65472 40.3352 6.639 40.3392 6.62328 40.3471C6.50737 40.3966 6.42682 40.4066 6.32859 40.3867C6.3109 40.3828 6.29322 40.3828 6.27554 40.3867C6.03979 40.4264 5.79421 40.4521 5.58792 40.365C5.57024 40.357 5.55059 40.3531 5.53094 40.3531C5.48379 40.3531 5.44057 40.365 5.40324 40.3729C5.37967 40.3788 5.35609 40.3848 5.34037 40.3848C5.30501 40.3848 5.27161 40.3887 5.23625 40.3907C5.20678 40.3927 5.17731 40.3947 5.14981 40.3966C5.11248 40.3966 5.07515 40.4026 5.03979 40.4066C5.01425 40.4105 4.98674 40.4145 4.9612 40.4145C4.9612 40.4145 4.9278 40.4066 4.91208 40.4006C4.87279 40.3887 4.8276 40.3749 4.77063 40.3729C4.70776 40.3729 4.65865 40.3986 4.61739 40.4184C4.60364 40.4244 4.58399 40.4343 4.58006 40.4363C4.55845 40.4363 4.53291 40.4323 4.50933 40.4283C4.47004 40.4224 4.43075 40.4165 4.39146 40.4165C4.34234 40.4165 4.30108 40.4283 4.26375 40.4382C4.24018 40.4442 4.2166 40.4501 4.20089 40.4501C4.1832 40.4521 4.16356 40.4442 4.13998 40.4382C4.10265 40.4283 4.06533 40.4165 4.01032 40.4204C4.00246 40.4204 3.97888 40.4125 3.96316 40.4066C3.92584 40.3927 3.87672 40.3749 3.82171 40.3749H3.81975C3.7667 40.3749 3.72151 40.3907 3.68419 40.4026C3.66454 40.4085 3.64096 40.4165 3.63114 40.4165C3.58203 40.4165 3.54077 40.4283 3.50344 40.4363C3.47986 40.4422 3.45629 40.4482 3.44057 40.4482C3.42878 40.4482 3.40717 40.4402 3.38556 40.4343C3.34823 40.4224 3.30305 40.4085 3.25 40.4085C3.24214 40.4085 3.20874 40.4026 3.1832 40.3986C3.14588 40.3907 3.10462 40.3808 3.05943 40.3808H3.0555C3.00049 40.3808 2.95138 40.3986 2.91208 40.4125C2.8944 40.4184 2.87083 40.4283 2.861 40.4283C2.82564 40.4283 2.79028 40.4303 2.75491 40.4343C2.72544 40.4363 2.69597 40.4382 2.66454 40.4382H2.57613C2.54077 40.4402 2.5054 40.4422 2.47004 40.4422C2.43664 40.4422 2.42289 40.4382 2.39931 40.4323C2.36002 40.4244 2.31876 40.4184 2.28144 40.4184C2.26572 40.4184 2.24214 40.4125 2.2166 40.4066C2.13802 40.3867 2.02014 40.3887 1.94548 40.4125C1.89637 40.4283 1.87279 40.4264 1.82171 40.4125C1.79224 40.4046 1.75884 40.4066 1.73134 40.4184C1.69794 40.3986 1.65668 40.3927 1.61739 40.4046C1.60167 40.4105 1.58399 40.4165 1.56631 40.4244C1.55059 40.4165 1.5388 40.4026 1.51523 40.3729L1.49362 40.3451C1.47201 40.3214 1.46415 40.3016 1.45039 40.2421C1.44647 40.2303 1.44254 40.2164 1.43664 40.2005C1.42682 40.1768 1.41307 40.157 1.39342 40.1411C1.40128 40.1213 1.40324 40.1015 1.40128 40.0797C1.40128 40.0658 1.39735 40.0401 1.40128 40.0302C1.40521 40.0104 1.417 39.9866 1.43075 39.9589C1.44843 39.9232 1.46415 39.8856 1.47593 39.846C1.48576 39.8123 1.48969 39.7747 1.49558 39.737C1.49951 39.7053 1.50344 39.6776 1.50933 39.6598C1.52898 39.6102 1.56041 39.5528 1.59381 39.4954L1.68812 39.3329C1.70187 39.3092 1.71562 39.2874 1.73134 39.2656C1.75098 39.2359 1.77063 39.2042 1.78438 39.1804C1.78831 39.1745 1.80599 39.1646 1.81778 39.1566C1.85511 39.1329 1.90619 39.0972 1.93762 39.0398C1.96709 38.9863 1.97102 38.9328 1.97495 38.8892C1.97495 38.8753 1.97888 38.8516 1.97888 38.8476C1.98674 38.8357 2.00049 38.8179 2.01817 38.8001C2.04371 38.7723 2.07318 38.7406 2.0948 38.6971C2.11444 38.6614 2.12819 38.6238 2.13998 38.5861C2.14784 38.5624 2.1557 38.5406 2.16552 38.5208C2.19106 38.4732 2.20089 38.4237 2.20678 38.3841C2.21071 38.3643 2.21464 38.3405 2.2166 38.3346C2.22053 38.3286 2.23821 38.3128 2.25 38.3029C2.2834 38.2751 2.32269 38.2415 2.3502 38.19C2.36002 38.1702 2.37574 38.1523 2.38949 38.1365C2.41503 38.1048 2.44057 38.0711 2.46022 38.0335C2.53487 37.8889 2.59774 37.7463 2.66258 37.6056C2.80403 37.2946 2.93566 36.9995 3.15373 36.732C3.16552 36.7182 3.17535 36.7004 3.17927 36.6825L3.18517 36.6607C3.24018 36.4666 3.27947 36.3458 3.40128 36.2883C3.42878 36.2764 3.45039 36.2547 3.46611 36.2269C4.79028 33.7548 6.22446 31.2847 7.6115 28.8977L7.91601 28.3748C7.94155 28.3332 7.94155 28.2797 7.91798 28.2361C7.91405 28.2282 7.90619 28.2242 7.9003 28.2183C7.91012 28.2183 7.91798 28.2183 7.92584 28.2183C7.97495 28.2183 8.02014 28.1925 8.04568 28.1489L8.38163 27.5705C8.38163 27.5705 8.38163 27.5686 8.3836 27.5666V27.5626C8.60364 27.1862 8.82171 26.8099 9.03782 26.4335C9.04371 26.4216 9.04961 26.4097 9.05157 26.3979C9.05943 26.3899 9.06729 26.378 9.07515 26.3681L9.18124 26.1859C9.18124 26.1859 9.1891 26.1701 9.19303 26.1621C9.35413 25.6966 9.53684 25.3896 9.74902 25.2252C9.7667 25.2113 9.78045 25.1955 9.79028 25.1757C10.2873 24.1516 10.8001 23.2443 11.3188 22.4678C11.3502 22.4143 11.3561 22.3589 11.362 22.3153C11.362 22.2994 11.3659 22.2757 11.3679 22.2717C11.3718 22.2658 11.3915 22.2519 11.4032 22.244C11.4386 22.2182 11.4858 22.1846 11.5152 22.1311C11.5329 22.1014 11.5722 22.0241 11.6115 21.9468C11.6469 21.8795 11.6803 21.8102 11.696 21.7844C11.7156 21.7488 11.7412 21.6874 11.7805 21.5863C11.804 21.5289 11.8374 21.4417 11.8492 21.4219C11.861 21.4021 11.918 21.3348 11.9573 21.2892C12.028 21.204 12.0732 21.1505 12.0928 21.1149C12.1105 21.0852 12.1262 21.0535 12.1419 21.0238C12.1557 20.998 12.1695 20.9703 12.1832 20.9445C12.1989 20.9168 12.2461 20.8514 12.2913 20.788C12.3384 20.7207 12.3856 20.6553 12.4013 20.6276C12.4249 20.588 12.4445 20.5226 12.4799 20.4117C12.4975 20.3562 12.5231 20.273 12.5329 20.2532L12.6331 20.0868C12.6528 20.0551 12.7058 19.9699 12.7549 19.8927C12.7903 19.8352 12.8237 19.7837 12.8374 19.76C12.8492 19.7402 12.9082 19.6708 12.9455 19.6253C13.0162 19.5421 13.0594 19.4886 13.0791 19.4549C13.0968 19.4272 13.138 19.3579 13.1812 19.2885C13.2225 19.2192 13.2638 19.1518 13.2814 19.1241C13.3011 19.0924 13.3168 19.0568 13.3325 19.0211C13.3423 18.9973 13.3541 18.9716 13.3679 18.9498C13.3856 18.9201 13.4347 18.8488 13.4818 18.7775C13.5251 18.7141 13.5663 18.6527 13.582 18.6249C13.5997 18.5952 13.639 18.518 13.6763 18.4387C13.7097 18.3714 13.7412 18.3021 13.7569 18.2763C13.7765 18.2446 13.7942 18.2109 13.8099 18.1773C13.8217 18.1535 13.8335 18.1277 13.8473 18.104C13.863 18.0782 13.9376 17.9772 14.0123 17.8762C14.0909 17.7672 14.1695 17.6602 14.1871 17.6305C14.2009 17.6087 14.2166 17.5909 14.2343 17.5711C14.2598 17.5414 14.2854 17.5097 14.307 17.476L14.4091 17.3116C14.4347 17.27 14.4504 17.2284 14.4622 17.1908C14.47 17.167 14.4779 17.1432 14.4877 17.1294C14.4936 17.1195 14.5113 17.1016 14.529 17.0878C14.5584 17.062 14.5938 17.0284 14.6194 16.9848C14.6547 16.9273 14.6586 16.8639 14.6606 16.8184C14.6606 16.8045 14.6626 16.7827 14.6606 16.7827C14.6665 16.7728 14.6842 16.755 14.7019 16.7411C14.7313 16.7154 14.7667 16.6817 14.7922 16.6381C14.8453 16.5549 14.9023 16.4678 14.9592 16.3786C15.1753 16.0498 15.4209 15.6774 15.5584 15.2911C15.7647 15.0831 15.8964 14.8236 16.026 14.5741L16.0673 14.4928C16.0751 14.479 16.0791 14.4631 16.081 14.4473C16.0928 14.4374 16.1027 14.4235 16.1105 14.4096C16.1518 14.3324 16.2009 14.2413 16.2598 14.1541C16.2716 14.1363 16.2795 14.1165 16.2814 14.0967C16.3168 13.8609 16.4386 13.6411 16.5643 13.441C16.5702 13.4311 16.5742 13.4232 16.5781 13.4133C16.586 13.4053 16.5918 13.3974 16.5977 13.3875L16.6586 13.2924C16.7667 13.128 16.8767 12.9557 16.9651 12.7576C17.0359 12.5239 17.1557 12.3218 17.2834 12.1059C17.4131 11.89 17.5447 11.6661 17.6272 11.4027L17.7608 11.1729C17.7726 11.1531 17.7785 11.1333 17.7805 11.1115C17.7981 11.0996 17.8139 11.0838 17.8256 11.064C18.3306 10.1963 18.8315 9.31089 19.3148 8.45318L19.3895 8.31848C19.3895 8.31848 19.3954 8.30659 19.3993 8.29867C19.4032 8.29273 19.4072 8.28678 19.4111 8.28084L19.6469 7.86486C19.6547 7.85099 19.6606 7.83515 19.6626 7.82128C19.6744 7.81138 19.6842 7.79949 19.692 7.78562C19.8846 7.44492 20.0791 7.10421 20.2736 6.7635C20.2893 6.73576 20.2952 6.70605 20.2913 6.67436C20.3188 6.66247 20.3423 6.64266 20.3581 6.61493C20.9357 5.61261 21.4268 4.78659 21.9023 4.01801C21.918 3.99424 21.9239 3.96849 21.9239 3.94076C21.9474 3.92888 21.9691 3.91105 21.9828 3.88926C22.1871 3.56241 22.3954 3.23557 22.6056 2.91269C22.6213 2.88892 22.6292 2.86317 22.6292 2.83544V2.83147C22.6547 2.82157 22.6763 2.80176 22.692 2.77799L22.7785 2.64329C22.8001 2.60764 22.8237 2.57198 22.8453 2.53633C22.8551 2.52048 22.8728 2.50265 22.8905 2.48284C22.918 2.45511 22.9474 2.42144 22.973 2.37984C22.9808 2.36399 22.9985 2.34616 23.0162 2.32635C23.0417 2.29664 23.0732 2.26495 23.0968 2.22335C23.1223 2.18175 23.1341 2.13817 23.1439 2.10252L23.1518 2.07478C23.1596 2.04705 23.1577 2.01932 23.1518 1.99357C23.1812 1.97574 23.2087 1.94207 23.2205 1.91037C23.2362 1.86679 23.2284 1.81925 23.2029 1.78161C23.197 1.77369 23.1891 1.76973 23.1832 1.76379C23.2264 1.76379 23.2677 1.7519 23.2952 1.71823C23.3286 1.67861 23.3364 1.62315 23.3168 1.5756L23.2638 1.44289C23.2775 1.44289 23.2932 1.43892 23.3109 1.43298C23.3698 1.41119 23.4052 1.36365 23.4347 1.29828H23.5133V1.52806C23.5113 1.54391 23.5113 1.56174 23.5133 1.57957C23.5211 1.62513 23.5545 1.66672 23.5977 1.68653C23.6036 1.69248 23.6115 1.71625 23.6194 1.73209C23.6311 1.76181 23.6449 1.79152 23.6606 1.82123C23.6763 1.84698 23.696 1.87075 23.7254 1.89056C23.7274 1.89254 23.7313 1.89452 23.7333 1.89651C23.7549 1.91037 23.7805 1.92424 23.806 1.93612C23.8099 1.9381 23.8158 1.94008 23.8217 1.94405C23.8217 1.94999 23.8217 1.95593 23.8217 1.96187C23.8178 2.01338 23.8119 2.08469 23.8492 2.15006C23.8531 2.15798 23.859 2.16392 23.8669 2.17581C23.8826 2.20156 23.9082 2.22137 23.9376 2.23127C23.9376 2.259 23.9435 2.28872 23.9592 2.31249C23.9946 2.36795 24.0476 2.39965 24.0869 2.42144L24.1105 2.4353C24.1105 2.4353 24.1105 2.45511 24.1105 2.46303C24.1105 2.51057 24.1105 2.57594 24.1498 2.64329C24.1714 2.68093 24.2087 2.70668 24.252 2.71262C24.2696 2.7146 24.2893 2.71262 24.307 2.70866L24.4445 2.98598C24.4131 3.03154 24.4111 3.09295 24.4425 3.14049C24.4602 3.16822 24.4818 3.19595 24.5015 3.22171C24.5172 3.24151 24.5349 3.2633 24.5467 3.28311C24.5643 3.31283 24.582 3.34056 24.5997 3.37027L24.6449 3.44554C24.6626 3.47526 24.6822 3.50497 24.6999 3.5327C24.7156 3.55647 24.7313 3.58024 24.7451 3.60401C24.7765 3.65948 24.8256 3.69315 24.8649 3.72088C24.8728 3.72485 24.8807 3.72683 24.8885 3.72881C24.8885 3.74267 24.8885 3.75852 24.8885 3.77437C24.918 3.90312 24.975 4.00811 25.0634 4.09329C25.085 4.13489 25.1007 4.17846 25.1164 4.22204C25.1655 4.3508 25.2186 4.4954 25.3679 4.59247C25.4072 4.66576 25.4406 4.74103 25.4759 4.82027L25.5034 4.87969C25.5349 4.94704 25.6135 4.97874 25.6822 4.951L25.7392 4.92723C25.7254 4.96685 25.7078 5.03222 25.6901 5.14315C25.6842 5.18078 25.694 5.2204 25.7176 5.2521C25.7628 5.30954 25.806 5.35708 25.8512 5.3967C25.9867 5.76712 26.2048 6.06029 26.4366 6.37128C26.5545 6.52975 26.6763 6.69219 26.7824 6.86254C27.0339 7.29833 27.2893 7.72026 27.5938 8.21745C27.6095 8.24321 27.6331 8.26301 27.6606 8.27292C27.6586 8.30263 27.6645 8.33234 27.6803 8.3581L27.7392 8.45318C28.0359 8.93651 28.3443 9.43569 28.639 9.93883C28.639 9.94279 28.6429 9.94477 28.6449 9.94873C28.6449 9.95269 28.6488 9.95666 28.6508 9.96062C28.7942 10.2062 28.9376 10.4519 29.0712 10.6916C29.1243 10.8164 29.1871 10.9471 29.2618 11.0937C29.2854 11.1373 29.3286 11.167 29.3777 11.1689C29.4013 11.1689 29.4209 11.1729 29.4425 11.1749C29.4268 11.1868 29.4111 11.2006 29.4013 11.2204C29.3777 11.262 29.3777 11.3135 29.4013 11.3571C29.5486 11.6226 29.7078 11.886 29.863 12.1396L30.0359 12.4248C30.1852 12.6427 30.2755 12.9022 30.3404 13.1023C30.3482 13.128 30.364 13.1498 30.3836 13.1676C30.4995 13.2667 30.5604 13.3994 30.6292 13.5618C30.6449 13.5975 30.6724 13.6252 30.7078 13.6391L30.7863 13.6688C30.7746 13.6807 30.7628 13.6946 30.7549 13.7084C30.7333 13.75 30.7353 13.7995 30.7569 13.8411C30.7903 13.9025 30.8197 13.9481 30.8531 13.9917C30.863 14.0036 30.8748 14.0155 30.8865 14.0234C30.9494 14.065 30.9691 14.1224 31.0025 14.2234C31.0319 14.3146 31.0653 14.4156 31.138 14.4988C31.1695 14.5443 31.2048 14.5859 31.2402 14.6256C31.3404 14.7444 31.3973 14.8177 31.3915 14.9247C31.3895 14.9683 31.4072 15.0118 31.4425 15.0396C31.637 15.202 31.7451 15.4318 31.861 15.6754C31.9651 15.8993 32.0732 16.129 32.2559 16.3093C32.2736 16.3945 32.305 16.4717 32.3482 16.5411C32.3659 16.5668 32.3915 16.5846 32.4209 16.5926C32.4327 16.6025 32.4425 16.6124 32.4504 16.6203L32.4543 16.6243C32.4583 16.652 32.4661 16.6916 32.4838 16.759C32.4858 16.7689 32.4897 16.7788 32.4936 16.7867C32.5309 16.8639 32.5781 16.9313 32.639 16.9927C32.6862 17.1571 32.7706 17.2918 32.8531 17.4245C32.9376 17.5592 33.0162 17.686 33.0476 17.8326C33.0516 17.8504 33.0575 17.8663 33.0673 17.8821C33.1105 17.9495 33.1636 18.0049 33.2087 18.0544C33.2991 18.1535 33.3502 18.2129 33.3541 18.308C33.3541 18.3516 33.3777 18.3932 33.4131 18.4189C33.4779 18.4645 33.5093 18.5318 33.5486 18.619C33.5663 18.6586 33.586 18.7002 33.6076 18.7398C33.6194 18.7616 33.641 18.7794 33.6645 18.7933C33.6685 18.8191 33.6803 18.8428 33.696 18.8626C33.7274 18.9617 33.7805 19.037 33.8276 19.1043C33.8905 19.1934 33.9258 19.2489 33.9258 19.3262C33.9258 19.3737 33.9474 19.4193 33.9867 19.445C34.083 19.5104 34.1262 19.6074 34.1773 19.7223C34.2245 19.8273 34.2775 19.9442 34.3757 20.0393C34.4032 20.2176 34.5133 20.3463 34.6115 20.4612C34.6724 20.5325 34.7313 20.6018 34.7687 20.6771C34.8414 21.002 34.9632 21.2298 35.1557 21.3882C35.2245 21.6061 35.3482 21.8221 35.5251 22.034C35.5545 22.2103 35.6842 22.3708 35.7903 22.5015L35.8296 22.549C36.0005 22.9135 36.2225 23.276 36.4366 23.6266C36.6213 23.9277 36.8119 24.2387 36.9592 24.5319C37.0201 24.6864 37.1164 24.8231 37.2087 24.9558C37.2657 25.037 37.3188 25.1143 37.362 25.1915L37.3836 25.2569C37.4366 25.4173 37.5074 25.6313 37.696 25.7323C37.804 25.9224 37.8983 26.1265 37.9907 26.3226C38.138 26.6356 38.2893 26.9604 38.4956 27.2496C39.8787 29.5712 41.1911 31.9463 42.4622 34.2441C42.9317 35.0958 43.4032 35.9456 43.8787 36.7954C43.8826 36.8034 43.8885 36.8133 43.8964 36.8192C44.0948 37.043 44.2284 37.3144 44.3698 37.6016C44.4111 37.6848 44.4524 37.768 44.4956 37.8512C44.6174 38.085 44.7726 38.3504 45.0064 38.5683C45.0142 38.5861 45.0221 38.604 45.03 38.6198C45.0417 38.6475 45.0516 38.6733 45.0653 38.699C45.083 38.7327 45.1125 38.7565 45.1478 38.7684L45.1812 38.7783C45.1557 38.8159 45.1478 38.8635 45.1636 38.909C45.1695 38.9229 45.1734 38.9387 45.1773 38.9526C45.1871 38.9883 45.1989 39.0338 45.2245 39.0774C45.248 39.119 45.2775 39.1507 45.305 39.1784C45.3227 39.1962 45.3384 39.2141 45.3443 39.226C45.3522 39.2398 45.3581 39.2636 45.3659 39.2874C45.3757 39.323 45.3875 39.3646 45.4131 39.4062C45.4288 39.4339 45.4465 39.4617 45.4641 39.4894C45.4799 39.5152 45.4956 39.5409 45.5113 39.5686C45.5427 39.6221 45.5879 39.6538 45.6233 39.6796C45.6331 39.6875 45.6429 39.6934 45.6508 39.7014C45.6508 39.7014 45.6508 39.7014 45.6528 39.7033C45.6567 39.7132 45.6586 39.7331 45.6606 39.7489C45.6665 39.7905 45.6724 39.842 45.7019 39.8915C45.7313 39.943 45.7726 39.9787 45.804 40.0084C45.8158 40.0183 45.8335 40.0322 45.8315 40.0302C45.8669 40.1253 45.8748 40.1649 45.8728 40.1728C45.863 40.2124 45.8708 40.254 45.8924 40.2877L45.7922 40.2976C45.7529 40.2936 45.7097 40.3055 45.6803 40.3352C45.6685 40.3451 45.6645 40.3471 45.6645 40.3491C45.641 40.357 45.6135 40.3689 45.5879 40.3828C45.5526 40.3986 45.5192 40.4145 45.4877 40.4204C45.474 40.4224 45.4465 40.4204 45.4229 40.4204C45.3856 40.4184 45.3384 40.4165 45.2893 40.4224C45.2579 40.4264 45.2225 40.4303 45.1871 40.4323C45.1714 40.4323 45.1537 40.4343 45.138 40.4363C45.1164 40.4264 45.0889 40.4184 45.0614 40.4165C45.026 40.4145 44.9907 40.4165 44.9553 40.4165C44.9317 40.4165 44.9082 40.4264 44.8885 40.4382C44.8748 40.4264 44.859 40.4165 44.8414 40.4105L44.8158 40.4006C44.7785 40.3867 44.7333 40.3689 44.6704 40.3669L44.3306 40.3749C44.307 40.3749 44.2834 40.3828 44.2618 40.3947L44.0889 40.4997C44.0535 40.4699 44.0221 40.4422 43.9926 40.4165C43.9671 40.3947 43.9317 40.3848 43.9003 40.3848C43.0869 40.4006 42.2284 40.4125 41.3443 40.4184C41.2913 40.4184 41.2441 40.4482 41.2205 40.4957L41.195 40.5472L40.6704 40.6542C40.5997 40.668 40.5526 40.7334 40.5584 40.8067C40.5663 40.878 40.6252 40.9335 40.6979 40.9335C41.1027 40.9315 41.5054 40.9295 41.9082 40.9295C41.9239 40.9295 41.9416 40.9255 41.9573 40.9176C41.975 40.9255 41.9926 40.9295 42.0123 40.9295C43.0339 40.9295 43.9199 40.9454 44.7254 40.9711C44.7608 40.9711 44.7942 40.9691 44.8296 40.9671C44.8571 40.9671 44.8865 40.9632 44.914 40.9632C44.971 40.9632 45.0182 40.9434 45.0575 40.9255C45.0693 40.9196 45.0889 40.9117 45.0889 40.9117C45.1105 40.9117 45.1341 40.9176 45.1557 40.9216C45.193 40.9275 45.2304 40.9354 45.2677 40.9354C45.305 40.9374 45.3443 40.9315 45.3816 40.9255C45.4032 40.9216 45.4229 40.9176 45.4445 40.9176C45.4681 40.9176 45.4858 40.9216 45.5074 40.9255C45.5427 40.9335 45.586 40.9414 45.6292 40.9394C45.6685 40.9394 45.7078 40.9354 45.749 40.9315H45.7667C45.7667 40.9315 45.7805 40.9315 45.7844 40.9354C45.8139 40.9493 45.8492 40.9533 45.8806 40.9454C45.8964 40.9414 45.9141 40.9354 45.9337 40.9295C45.9691 40.9176 46.0005 40.9077 46.0319 40.9057C46.0555 40.9057 46.081 40.9077 46.1066 40.9117C46.14 40.9156 46.1734 40.9196 46.2068 40.9196C46.2382 40.9196 46.2716 40.9176 46.305 40.9137C46.3306 40.9117 46.3581 40.9077 46.3797 40.9077C46.3856 40.9077 46.4052 40.9196 46.417 40.9255C46.4543 40.9454 46.5034 40.9711 46.5643 40.9731C46.6213 40.9751 46.6763 40.977 46.7294 40.977C46.7785 40.977 46.8256 40.9513 46.8492 40.9077L46.8846 40.8443C46.8846 40.8443 46.8865 40.8404 46.8885 40.8384C46.8885 40.8364 46.8905 40.8344 46.8924 40.8305L46.9848 40.668C47.0044 40.6324 47.0084 40.5888 46.9946 40.5512L46.9966 40.565ZM21.0457 4.69151V4.70141H21.0201C21.0201 4.70141 21.0378 4.69349 21.0457 4.69151ZM15.9494 13.3935L15.9867 13.3974L15.9494 13.4093C15.9455 13.4034 15.9396 13.3974 15.9337 13.3915C15.9376 13.3915 15.9435 13.3915 15.9474 13.3935H15.9494ZM30.7706 35.0087C30.9121 35.0285 31.0594 35.0483 31.2048 35.0166C31.307 35.0028 31.3954 35.0166 31.4897 35.0622C31.5113 35.0721 31.5349 35.078 31.5585 35.076C31.6508 35.0701 31.7235 35.0958 31.8119 35.1652C31.8355 35.185 31.8649 35.1949 31.8964 35.1949C32.0044 35.1949 32.1007 35.2424 32.2107 35.2959C32.2559 35.3177 32.3011 35.3395 32.3463 35.3593L32.3698 35.391C32.4268 35.4683 32.4838 35.5475 32.5074 35.6069C32.5172 35.6386 32.5211 35.6584 32.5211 35.6703C32.5074 35.6762 32.4799 35.6822 32.4307 35.6921C32.3993 35.698 32.3698 35.7139 32.3482 35.7396C32.2952 35.803 32.2205 35.8367 32.1243 35.8387C32.0928 35.8387 32.0614 35.8506 32.0378 35.8704C31.975 35.9239 31.9121 35.9318 31.8276 35.9437C31.7529 35.9536 31.6685 35.9655 31.5781 36.013C31.4779 36.0288 31.3698 36.017 31.2579 36.0051C31.1793 35.9971 31.0968 35.9892 31.0123 35.9892C30.9946 35.9892 30.9769 35.9892 30.9592 35.9912C30.6822 36.0447 30.3993 35.9991 30.0987 35.9516C29.8767 35.9159 29.6488 35.8783 29.4131 35.8823C29.3954 35.8823 29.3797 35.8862 29.364 35.8922C29.2795 35.9258 29.1989 35.91 29.0771 35.8803C29.0064 35.8624 28.9278 35.8426 28.8374 35.8387C28.5506 35.8307 28.2854 35.7614 27.9455 35.6089C27.9278 35.601 27.9101 35.597 27.8905 35.597C27.641 35.593 27.4032 35.5772 27.2245 35.4306C27.2127 35.4207 27.197 35.4148 27.1832 35.4108C27.2166 35.4029 27.248 35.391 27.2814 35.3771H27.2893C27.3129 35.3732 27.3306 35.3712 27.3443 35.3672C27.4072 35.3514 27.4543 35.3137 27.4917 35.286C27.4995 35.2801 27.5093 35.2741 27.5172 35.2662L27.5447 35.2583C27.5545 35.2603 27.5663 35.2642 27.5781 35.2682C27.6272 35.284 27.6901 35.3019 27.7569 35.288C27.7647 35.288 27.7706 35.284 27.7785 35.2821C28.3757 35.0562 28.9848 35.0424 29.6292 35.0265C29.9003 35.0206 30.1832 35.0146 30.4661 34.9909C30.5643 34.981 30.6645 34.9948 30.7706 35.0107V35.0087ZM20.0457 33.9687C20.0319 33.9707 20.0182 33.9747 20.0064 33.9826L19.9514 34.0084C19.7608 34.0539 19.5643 34.1015 19.364 34.0856C19.3306 34.0836 19.2991 34.0915 19.2736 34.1114C19.1577 34.1946 19.0339 34.1847 18.8767 34.1708C18.7746 34.1629 18.6685 34.1549 18.5643 34.1708C18.4327 34.1827 18.3148 34.2302 18.2029 34.2758C18.197 34.2718 18.1891 34.2698 18.1852 34.2659C18.1439 34.2441 18.085 34.2144 18.0142 34.2183C17.9494 34.2223 17.8983 34.254 17.861 34.2777C17.8512 34.2837 17.8374 34.2936 17.8414 34.2956C17.8335 34.2916 17.8197 34.2857 17.808 34.2797C17.7667 34.2599 17.7097 34.2302 17.6449 34.2362C17.6331 34.2362 17.6213 34.2381 17.6115 34.2421C17.3934 34.3094 17.1871 34.3372 17.0123 34.3213C16.975 34.3174 16.9357 34.3312 16.9062 34.357C16.9042 34.359 16.9003 34.3609 16.8983 34.3649C16.8846 34.3253 16.8531 34.2936 16.8139 34.2797C16.8139 34.2797 16.7824 34.2698 16.7805 34.2678C16.7608 34.2599 16.7372 34.256 16.7176 34.2579C16.6213 34.2659 16.5309 34.2857 16.4445 34.3055C16.417 34.3114 16.3915 34.3174 16.364 34.3233C16.3561 34.3174 16.3463 34.3114 16.3404 34.3055C16.2991 34.2758 16.2441 34.2362 16.1734 34.2302C16.1046 34.2243 16.0437 34.254 15.9985 34.2758C15.9848 34.2817 15.9651 34.2936 15.9671 34.2936C15.9573 34.2936 15.9298 34.2797 15.9121 34.2698C15.8767 34.252 15.8315 34.2302 15.7805 34.2203C15.7647 34.2183 15.749 34.2183 15.7333 34.2203C15.6154 34.2401 15.5624 34.2262 15.4583 34.1411C15.4445 34.1292 15.4288 34.1213 15.4111 34.1153C15.3561 34.0995 15.305 34.1015 15.2618 34.1054C15.2441 34.1054 15.2186 34.1074 15.2186 34.1094C15.2127 34.1054 15.197 34.0856 15.1871 34.0737C15.1596 34.0381 15.1262 33.9945 15.0732 33.9668C15.0693 33.9648 15.0575 33.9588 15.0535 33.9568C14.9632 33.9212 14.9003 33.8895 14.8649 33.8637C14.8944 33.8439 14.9278 33.8182 14.9553 33.7845C14.9926 33.739 15.0064 33.6855 15.0162 33.6439C15.0201 33.628 15.026 33.6043 15.0319 33.5983C15.1105 33.5171 15.2382 33.4676 15.3266 33.4379C15.3541 33.428 15.3777 33.4121 15.3954 33.3883C15.4386 33.3309 15.5074 33.3091 15.6174 33.2774C15.6449 33.2695 15.6704 33.2635 15.6979 33.2536C15.7078 33.2536 15.7176 33.2517 15.7274 33.2497C15.9298 33.2893 16.1282 33.3051 16.3129 33.2992C16.3207 33.2992 16.3266 33.2992 16.3345 33.2972C16.3423 33.2972 16.3502 33.2972 16.36 33.2972C16.4936 33.2893 16.6213 33.2695 16.7372 33.2358C16.8571 33.2576 16.973 33.2576 17.085 33.2596C17.2166 33.2596 17.3384 33.2635 17.4543 33.2952C17.474 33.3012 17.4975 33.3012 17.5172 33.2972C17.7078 33.2596 17.8551 33.2853 17.9691 33.3765C17.9848 33.3883 18.0005 33.3963 18.0201 33.4022C18.1675 33.4418 18.307 33.422 18.4288 33.3943C18.4347 33.3982 18.4386 33.4022 18.4425 33.4062C18.4779 33.4379 18.527 33.4795 18.6135 33.4953C18.7058 33.4993 18.7981 33.5171 18.8964 33.5329C19.0457 33.5587 19.1989 33.5864 19.36 33.5726C19.3816 33.5844 19.4052 33.5963 19.4268 33.6082C19.5093 33.6538 19.5958 33.6993 19.6901 33.733C19.7078 33.739 19.7274 33.7429 19.7471 33.7409C19.9317 33.7271 20.1105 33.7944 20.2972 33.8637C20.307 33.8677 20.3168 33.8717 20.3266 33.8756C20.3148 33.8756 20.305 33.8756 20.2932 33.8796C20.25 33.8915 20.2087 33.9113 20.1734 33.9351H20.1675C20.1302 33.945 20.0928 33.9529 20.0535 33.9588L20.0457 33.9687ZM27.7038 31.7304C27.7274 31.7323 27.749 31.7304 27.7706 31.7205C27.8767 31.6789 27.971 31.6868 28.0889 31.7125C28.1125 31.7185 28.1361 31.7165 28.1577 31.7105C28.2873 31.6729 28.417 31.661 28.5545 31.6491C28.6783 31.6392 28.804 31.6293 28.9337 31.5976C28.9435 31.5957 28.9533 31.5917 28.9612 31.5877C29.0712 31.5343 29.1911 31.5481 29.3306 31.564C29.3816 31.5699 29.4347 31.5758 29.4877 31.5778C29.5113 31.5778 29.5349 31.5739 29.5565 31.564C29.6586 31.5125 29.7372 31.5065 29.8453 31.5382C29.861 31.5422 29.8748 31.5442 29.8905 31.5442C29.9396 31.5422 29.9887 31.5362 30.0378 31.5323C30.1812 31.5164 30.2972 31.5065 30.4032 31.5659C30.4229 31.5758 30.4445 31.5818 30.4661 31.5838C30.5309 31.5838 30.5958 31.5501 30.639 31.5263C30.6449 31.5224 30.6547 31.5164 30.6586 31.5125C30.7706 31.5521 30.9042 31.5957 31.0496 31.6016C31.0614 31.6016 31.0771 31.6016 31.0909 31.5976C31.3109 31.5382 31.7962 31.6155 32.1184 31.8096C32.2009 31.8591 32.3011 31.9344 32.3581 32.0275C32.3522 32.0414 32.3482 32.0552 32.3463 32.0711C32.3423 32.1226 32.3659 32.1721 32.4052 32.1998C32.4091 32.2117 32.4131 32.2236 32.419 32.2335C32.3227 32.287 32.195 32.3345 32.1184 32.3623C32.0634 32.384 32.0123 32.4078 31.9632 32.4316C31.9396 32.4375 31.9042 32.4474 31.859 32.4613C31.8492 32.4633 31.8394 32.4672 31.8315 32.4692C31.751 32.495 31.6567 32.5286 31.5761 32.5683C31.4327 32.5722 31.2893 32.5801 31.1419 32.5881C30.6606 32.6158 30.1616 32.6435 29.7137 32.4831C29.7058 32.4791 29.696 32.4771 29.6862 32.4771C29.5093 32.4514 29.3345 32.4355 29.1655 32.4217C28.9632 32.4039 28.7706 32.388 28.5761 32.3543C28.4641 32.283 28.3482 32.2652 28.2441 32.2474C28.1675 32.2355 28.0948 32.2236 28.0339 32.1919C28.0201 32.184 28.0044 32.18 27.9887 32.178C27.6135 32.1305 27.2598 32.0631 26.9101 31.974C26.8924 31.9582 26.8748 31.9443 26.8571 31.9304C26.9003 31.9205 26.9592 31.9027 27.0378 31.871C27.0516 31.871 27.0673 31.871 27.081 31.871C27.1066 31.871 27.1341 31.871 27.1596 31.867C27.1911 31.875 27.2264 31.8809 27.2638 31.8809C27.2834 31.8809 27.3011 31.8809 27.3227 31.875C27.3404 31.871 27.3561 31.8651 27.3718 31.8551C27.3974 31.8373 27.4229 31.8215 27.4484 31.8056C27.4975 31.7878 27.5447 31.77 27.5899 31.7482C27.6213 31.7482 27.6567 31.7403 27.692 31.7323C27.692 31.7323 27.694 31.7323 27.696 31.7323L27.7038 31.7304ZM17.9062 30.8172C17.8905 30.8132 17.8748 30.8132 17.859 30.8152C17.6292 30.8409 17.3934 30.839 17.1459 30.835C16.8787 30.833 16.6036 30.8291 16.3364 30.8647H16.3286C15.9612 30.7993 15.6154 30.7399 15.2657 30.6151C15.2402 30.6052 15.2107 30.6052 15.1832 30.6112C15.0634 30.6429 14.9396 30.5636 14.863 30.4804C14.7726 30.3814 14.7274 30.2546 14.7529 30.1793C14.7765 30.114 14.859 30.0882 14.9258 30.0783C14.9357 30.0783 14.9474 30.0744 14.9573 30.0704C15.0751 30.0228 15.2028 29.9713 15.3325 29.9218L15.4465 29.8763C15.4465 29.8763 15.4602 29.8763 15.4661 29.8743C15.4877 29.8683 15.5074 29.8604 15.5251 29.8505C15.5565 29.8505 15.5879 29.8505 15.6194 29.8505C15.7647 29.8505 15.9121 29.8525 16.0653 29.8069C16.0909 29.8109 16.1144 29.8149 16.14 29.8208C16.2854 29.8465 16.4465 29.8763 16.6095 29.801C16.7903 29.8347 16.971 29.8208 17.1282 29.801C17.2638 29.799 17.4032 29.8327 17.5467 29.8683C17.7137 29.9099 17.8865 29.9515 18.0751 29.9377C18.2205 29.9258 18.364 29.9575 18.5172 29.9931C18.6606 30.0268 18.8099 30.0625 18.9651 30.0585C19.0693 30.1199 19.1871 30.1853 19.3227 30.217C19.3423 30.2209 19.362 30.2209 19.3797 30.217L19.4013 30.213C19.4524 30.2031 19.5074 30.1912 19.5172 30.1932C19.527 30.1972 19.5604 30.2249 19.5918 30.2506L19.6311 30.2823C19.6469 30.2962 19.6665 30.3041 19.6881 30.3101C19.7844 30.3319 19.8806 30.3477 19.973 30.3636C20.1046 30.3853 20.2304 30.4091 20.3522 30.4448C20.3423 30.4448 20.3325 30.4448 20.3247 30.4487C20.2873 30.4586 20.25 30.4784 20.2146 30.5042L20.1243 30.5161C19.9219 30.5418 19.7156 30.5676 19.5192 30.6409C19.3836 30.623 19.2638 30.6409 19.1419 30.6963C18.9946 30.6924 18.8885 30.734 18.7922 30.7835C18.6252 30.7518 18.472 30.7795 18.3227 30.8053C18.1793 30.8291 18.0417 30.8528 17.9062 30.8211V30.8172ZM29.6979 28.0816C29.6979 28.0816 29.7019 28.0816 29.7038 28.0816C29.7058 28.0816 29.7097 28.0816 29.7117 28.0816C30.0653 28.0677 30.4799 28.0677 30.8846 28.1747C30.9101 28.1826 30.9376 28.1806 30.9632 28.1727C31.0869 28.1331 31.1773 28.1133 31.2775 28.1351C31.2834 28.139 31.2991 28.1529 31.3109 28.1628C31.3561 28.2024 31.4209 28.2084 31.472 28.1787L31.4956 28.1648C31.5034 28.1826 31.5133 28.1985 31.527 28.2104C31.5545 28.2361 31.5899 28.252 31.6292 28.25C31.6449 28.25 31.6508 28.25 31.6528 28.25C31.7569 28.2737 31.8649 28.3114 31.9946 28.3649C32.0123 28.3728 32.0319 28.3767 32.0535 28.3748C32.1675 28.3688 32.2284 28.3946 32.2893 28.4679C32.305 28.4877 32.3266 28.5015 32.3502 28.5114C32.3463 28.5114 32.3423 28.5114 32.3364 28.5134C32.2873 28.5273 32.252 28.5491 32.2245 28.5709C32.1871 28.5748 32.1518 28.5946 32.1243 28.6244C32.0928 28.66 32.085 28.7155 32.0968 28.761C32.0516 28.8205 31.9946 28.8799 31.9357 28.9413C31.8983 28.9809 31.861 29.0185 31.8276 29.0582C31.7863 29.0641 31.7471 29.074 31.7137 29.0839C31.6508 29.0938 31.5899 29.1116 31.5388 29.1354C31.3384 29.0641 31.1361 29.0998 30.973 29.1473C30.8374 29.1196 30.7078 29.1216 30.5879 29.1473C30.5722 29.1473 30.5545 29.1493 30.5309 29.1513C30.5133 29.1513 30.4956 29.1572 30.4799 29.1651C30.4641 29.1572 30.4465 29.1532 30.4288 29.1532C30.2362 29.1453 30.0378 29.0879 29.9062 29.0443C29.8944 29.0403 29.8826 29.0384 29.8708 29.0384C29.8531 29.0384 29.8355 29.0384 29.8178 29.0384C29.7647 29.0384 29.7137 29.0423 29.6626 29.0483C29.529 29.0601 29.4484 29.0641 29.3757 29.0086C29.3561 28.9928 29.3247 28.9829 29.2991 28.9809C29.2834 28.9809 29.2657 28.9809 29.25 28.9849C29.2343 28.9769 29.2186 28.973 29.2029 28.971L29.0516 28.9591C28.7785 28.9373 28.5211 28.9155 28.2696 28.8284C28.2264 28.8125 28.1793 28.8205 28.1439 28.8462C28.1223 28.8621 28.1066 28.8819 28.0968 28.9056C28.081 28.8997 28.0693 28.8977 28.0555 28.8938V28.8858C28.0555 28.8106 27.9966 28.7491 27.9219 28.7452H27.8983C27.7981 28.7412 27.7353 28.7373 27.6783 28.6957C27.6567 28.6798 27.6311 28.6719 27.6056 28.6699C27.5309 28.666 27.4504 28.6541 27.36 28.6303C27.2913 28.6145 27.2225 28.6481 27.197 28.7135C27.1891 28.7353 27.1852 28.7591 27.1871 28.7808C27.0555 28.7194 27.0496 28.6996 27.0084 28.5729C27.0005 28.5471 26.9848 28.5233 26.9632 28.5055C27.0791 28.4857 27.1891 28.4401 27.2873 28.4005L27.3345 28.3827C27.4838 28.3867 27.6135 28.3609 27.7431 28.3094C28.0201 28.3134 28.4013 28.2836 28.7254 28.1311C28.9258 28.1272 29.1262 28.1153 29.3188 28.1054C29.4445 28.0974 29.5722 28.0915 29.6979 28.0856V28.0816ZM25.2775 28.1569C25.2775 28.1569 25.2814 28.1727 25.2873 28.1806L25.4091 28.3351C25.4091 28.3351 25.4268 28.349 25.4347 28.355C25.3522 28.3688 25.2755 28.3668 25.1832 28.3391C25.2205 28.2836 25.25 28.2321 25.2755 28.1569H25.2775ZM26.7608 25.0845C26.7726 25.0845 26.7844 25.0845 26.7981 25.0806C26.8217 25.0806 26.8453 25.0746 26.8649 25.0667C26.918 25.0548 26.9887 25.035 27.0771 25.0093C27.2579 25.0073 27.419 24.9439 27.5565 24.8805C27.6803 24.8528 27.806 24.8468 27.9416 24.8409C28.0791 24.835 28.2205 24.829 28.3659 24.7973C28.3738 24.7973 28.3836 24.7934 28.3915 24.7894C28.4543 24.7636 28.527 24.7537 28.6017 24.7458C28.694 24.7339 28.7981 24.722 28.9003 24.6765H28.914C29.0889 24.7062 29.2716 24.7359 29.4641 24.6686C29.5702 24.6547 29.6822 24.6626 29.8001 24.6725C29.9828 24.6864 30.1695 24.7003 30.3581 24.6329C30.362 24.6349 30.3659 24.6388 30.3718 24.6408C30.4131 24.6626 30.47 24.6943 30.5427 24.6943C30.5526 24.6943 30.5604 24.6943 30.5683 24.6923C30.9867 24.619 31.474 24.6468 31.8826 24.7696C32.0457 24.7993 32.1911 24.8983 32.3168 24.9974C32.362 25.0845 32.417 25.1697 32.5034 25.2351C32.5034 25.2351 32.5034 25.2371 32.5034 25.239C32.3954 25.4253 32.1459 25.5362 31.9101 25.6194C31.8865 25.6194 31.861 25.6194 31.8335 25.6253C31.8335 25.6253 31.8315 25.6253 31.8296 25.6253C31.7274 25.6194 31.6135 25.6134 31.4936 25.661C31.3541 25.6332 31.2225 25.655 31.1027 25.6729C31.0673 25.6788 31.0319 25.6847 30.9966 25.6887C30.8826 25.661 30.7667 25.6689 30.6449 25.7145C30.4622 25.6293 30.2775 25.663 30.1125 25.6947L30.0476 25.7065C29.9376 25.7164 29.8256 25.6907 29.7078 25.6649C29.641 25.6491 29.5742 25.6352 29.5074 25.6253C29.4877 25.6233 29.4681 25.6253 29.4504 25.6293C29.3502 25.657 29.2618 25.6511 29.1636 25.6055C29.1439 25.5976 29.1223 25.5936 29.1027 25.5936C29.0516 25.5936 29.0005 25.5976 28.9474 25.6016C28.749 25.6134 28.5624 25.6253 28.4131 25.5382C28.3797 25.5184 28.3423 25.5144 28.305 25.5243C28.0182 25.6055 27.7117 25.5421 27.3875 25.4728C27.2029 25.4332 27.0123 25.3936 26.8178 25.3817L26.6999 25.3777C26.4779 25.3698 26.2657 25.3599 26.0634 25.3024C26.1046 25.2886 26.1459 25.2767 26.1852 25.2628C26.3836 25.1975 26.5722 25.136 26.7647 25.0865L26.7608 25.0845ZM18.8748 27.2754C18.7038 27.2813 18.5643 27.3051 18.4386 27.3507C18.2186 27.2873 18.0103 27.3467 17.8237 27.3982C17.7667 27.414 17.7097 27.4299 17.6645 27.4418C17.4583 27.4695 17.2991 27.4517 17.1596 27.3863C17.14 27.3784 17.1203 27.3744 17.0987 27.3744C17.0339 27.3744 16.9789 27.4041 16.9396 27.4259C16.9298 27.4299 16.918 27.4378 16.9121 27.4418H16.9101C16.6645 27.3843 16.3895 27.319 16.1262 27.416C16.0084 27.3883 15.8944 27.3744 15.7765 27.3744C15.7156 27.3526 15.637 27.3289 15.5526 27.3011C15.2893 27.2199 14.8905 27.0991 14.7981 26.9208C14.7765 26.8792 14.7746 26.8376 14.7903 26.7861C14.7942 26.7722 14.7962 26.7584 14.7962 26.7445C14.7962 26.6712 14.7962 26.6613 14.9317 26.6217C14.9455 26.6177 14.9592 26.6118 14.971 26.6039C15.03 26.5643 15.0987 26.5286 15.1793 26.4969C15.2559 26.483 15.3207 26.4652 15.3777 26.4414C15.4327 26.4276 15.5034 26.4097 15.5702 26.3939C15.7412 26.4117 15.9101 26.3939 16.0732 26.3761C16.1262 26.3701 16.1773 26.3642 16.2304 26.3602C16.2932 26.3662 16.3581 26.3741 16.4209 26.38C16.584 26.3979 16.7471 26.4157 16.9239 26.4177C17.0732 26.4612 17.2068 26.4315 17.3306 26.388C17.417 26.3979 17.5034 26.4038 17.5879 26.4078C17.806 26.4196 18.0123 26.4296 18.1636 26.5385C18.1871 26.5563 18.2166 26.5643 18.2441 26.5643C18.2598 26.5643 18.2736 26.5623 18.2873 26.5563C18.307 26.5504 18.3286 26.5464 18.3482 26.5425C18.3581 26.5425 18.3679 26.5365 18.3757 26.5326C18.3836 26.5326 18.3915 26.5385 18.3993 26.5365C18.5368 26.5266 18.6763 26.5662 18.8276 26.6098C18.8728 26.6217 18.916 26.6336 18.9494 26.6415C19.1144 26.697 19.2834 26.7287 19.4484 26.7623C19.6567 26.8039 19.8531 26.8416 20.0417 26.9208C20.1321 26.9565 20.2225 26.9822 20.3129 27.006C20.2716 27.0199 20.2304 27.0416 20.1891 27.0674C20.1734 27.0694 20.1577 27.0733 20.1419 27.0753C19.9219 27.0951 19.7078 27.1189 19.5113 27.21C19.3777 27.1961 19.2618 27.216 19.14 27.2754H19.1243C19.0751 27.2833 19.0241 27.3071 19.0005 27.3526C18.9966 27.3467 18.9966 27.3388 18.9926 27.3328C18.9651 27.2952 18.9219 27.2714 18.8767 27.2774L18.8748 27.2754Z" fill="#333333"/>
</svg>
