<svg width="70" height="20" viewBox="0 0 70 20" fill="none" xmlns="http://www.w3.org/2000/svg">
<path d="M61.1438 1.4453L60.2827 1.4043L59.4217 1.4453L58.7042 1.59906L57.9867 1.56831L57.2486 1.49656L56.5619 1.77332L55.8341 1.85532L55.1678 2.13208L54.5118 2.41909L53.784 2.5216L53.1177 2.78811L52.4719 3.11612L51.7852 3.35188L51.1394 3.69014L50.6064 4.18216L50.0221 4.60242L49.5506 5.1662L48.9561 5.56596L48.3308 5.96573L48.4333 6.36549L48.6588 6.24249L49.3661 5.54546L50.0324 5.12519L50.6474 4.64343L51.2624 4.16166L51.9697 3.82339L52.6667 3.45438L53.3535 3.21862L54.071 3.01361L54.7885 2.81886H55.5266L56.2543 2.6856L56.9924 2.6651L57.7304 2.6241L58.4684 2.61385L59.1962 2.67535L59.9342 2.61385L60.6723 2.7061L61.4205 2.6651L62.1483 2.79836L62.8761 2.95211L63.5424 3.31088L64.1881 3.67989L64.8954 3.89515L65.5514 4.21291L66.1357 4.66393L66.8532 4.90994L67.376 5.44296L68.0525 5.81197L68.4113 6.4885L68.7803 7.11377L69.0161 7.74929L69.4261 8.36432L69.6106 9.06134L69.6003 9.77887L69.6311 10.4759L69.3851 11.1217L69.1698 11.7674L69.0161 12.4645L68.4933 12.9462L67.95 13.4383L67.622 14.1353L66.966 14.5043L66.4022 14.9963L65.6129 15.0373L65.0287 15.5601L64.2496 15.4678L63.5629 15.7241L62.8248 15.7548L62.0971 15.7856L61.3693 15.8369L60.6313 16.0726L59.8932 15.9906L59.1552 15.8266L58.3967 15.9906L57.6484 15.9599L56.9411 15.7343L56.2236 15.6216L55.5471 15.3653L54.9218 14.9451L54.2248 14.7503L53.5072 14.5966L52.7795 14.4838L52.1849 14.0225L51.4674 13.8585L50.7909 13.6023L50.1554 13.2435L49.5096 12.9155L48.8638 12.5977L48.136 12.4337L47.603 11.8699L46.906 11.6444L46.2397 11.3574L45.6247 10.9782L44.9892 10.6194L44.3024 10.3529L43.7899 9.78912L43.0211 9.66612L42.5086 9.10235L41.8013 8.82558L41.2375 8.33357L40.602 7.9543L39.9562 7.60579L39.2489 7.35978L38.6442 6.93951L38.0292 6.55L37.3629 6.21174L36.7991 5.72997L36.1533 5.3917L35.4051 5.19695L34.8105 4.75618L34.0828 4.55117L33.4882 4.0899L32.8732 3.66964L32.0737 3.61839L31.4997 3.12637L30.7924 2.90086L30.1671 2.51135L29.5521 2.10133L28.8448 1.88607L28.0863 1.83482L27.4303 1.50681L26.7332 1.29155L26.0977 0.871283L25.4109 0.604773L24.6729 0.563771L23.9554 0.420266L23.2788 0.0922535L22.5511 0L21.8028 0.112754L21.0853 0.143505L20.3677 0.0615023L19.5785 0L18.8507 0.338263L18.0409 0.287011L17.3131 0.615023L16.6263 0.902034L16.0216 1.33255L15.3655 1.68106L14.9555 2.29609L14.3303 2.7471L13.9612 3.40313L13.8177 4.14116L13.4897 4.83818L13.4282 5.58646L13.7357 6.11948L13.7767 6.34499L13.8075 6.36549L13.8485 6.09898L13.8075 5.58646L13.9407 4.80743L14.1047 4.0284L14.4328 3.32113L14.7915 2.61385L15.468 2.17308L15.9703 1.53756L16.7391 1.3223L17.4566 1.01479L18.2767 0.820031L19.0967 0.615023L19.927 0.338263L20.5932 0.594523L21.2595 0.748278L21.936 0.850782L22.6331 0.881533L23.4736 1.08654L24.1706 1.3018L24.8677 1.50681L25.5134 1.85532L26.1387 2.24484L26.846 2.38834L27.584 2.50109L28.1785 2.94186L28.9063 3.06487L29.4598 3.59789L30.0749 3.97715L30.7924 4.15141L31.3767 4.59217L32.1557 4.66393L32.7297 5.13544L33.3037 5.59671L34.052 5.75047L34.544 6.36549L35.2 6.673L35.8253 7.04202L36.4506 7.40078L37.0144 7.8518L37.7114 8.11831L38.3367 8.48732L38.9722 8.84609L39.5155 9.3586L40.274 9.48161L40.807 10.0249L41.504 10.2606L42.1191 10.6502L42.7853 10.9474L43.4414 11.2652L44.0871 11.6137L44.7944 11.8289L45.3787 12.321L46.0757 12.5772L46.6702 13.0385L47.398 13.2128L48.1155 13.4075L48.7716 13.7458L49.4583 13.9918L50.0426 14.4735L50.7806 14.5966L51.4469 14.8938L52.1132 15.1501L52.7385 15.5806L53.497 15.4473L54.2555 15.7753L55.0653 15.7958L55.8443 15.9599L56.6439 15.9906L57.4229 16.1239L58.2122 16.3186L59.0219 16.2879L59.8317 16.1239L60.6313 16.4519L60.703 16.1546L61.4615 16.3289L62.1996 16.1649L62.9376 16.0316L63.7166 16.1649L64.4649 16.0111L65.1722 15.7138L65.859 15.4371L66.5765 15.1808L67.089 14.6068L67.8578 14.3608L68.2063 13.6535L68.7701 13.1615L69.2928 12.6285L69.5081 11.911L69.7131 11.2139L70.0001 10.5271L69.7336 9.77887L69.7849 9.06134L69.5798 8.37457L69.4568 7.66729L69.3338 6.92926L68.9136 6.32449L68.5138 5.70947L68.1858 5.05344L67.5093 4.68443L67.0172 4.16166L66.5765 3.54663L65.9 3.23912L65.2542 2.91111L64.7007 2.38834L63.9729 2.22433L63.2964 1.93732L62.5378 1.98858L61.8306 1.83482L61.1335 1.54781" fill="#231815"/>
<path d="M8.84608 16.8824L9.69687 16.9029L10.5476 17.0054L11.2857 17.1079L11.993 16.8721L12.7002 16.7491L13.4588 16.7696L14.1763 16.6056L14.8528 16.3083L15.4678 15.8983L16.0931 15.5293L16.8209 15.3551L17.4769 15.027L18.0099 14.494L18.6147 14.0943L19.158 13.6022L19.8037 13.2435L20.2343 12.6285L20.88 12.2594L21.4131 11.7674L21.3208 11.4599L21.1465 11.5419L20.306 12.0749L19.8857 12.6285L19.281 12.9565L18.8095 13.4587L18.3072 13.9098L17.7639 14.3403L17.0361 14.4325L16.3904 14.7708L15.7651 15.2116L14.9963 15.2423L14.2993 15.4473L13.5818 15.6113L12.8642 15.7856L12.157 15.9701L11.4292 16.1853L10.6809 16.1443L9.95313 15.9906L9.20485 16.1136L8.47707 15.9598L7.73904 15.9393L6.99076 15.8368L6.33474 15.4576L5.64796 15.1808L4.97144 14.8835L4.38717 14.4223L3.80289 13.9815L3.14687 13.633L2.59335 13.1512L1.95782 12.731L1.52731 12.1159L1.20955 11.4497L0.861032 10.8551L0.512519 10.2196L0.389515 9.51234L0.461267 8.79481L0.481768 8.11828L0.553521 7.44176L0.840532 6.81649L1.13779 6.22196L1.47606 5.62744L1.89632 5.03292L2.36784 4.4589L3.02386 4.08988L3.61839 3.66962L4.30516 3.41336L4.99194 3.18785L5.69922 3.01359L6.42699 2.94184L7.13427 2.73683L7.86205 2.70608L8.58982 2.52157L9.3381 2.51132L10.0761 2.50107L10.8142 2.69583L11.5522 2.85984L12.2902 2.82908L12.9975 2.97259L13.6638 3.2391L14.4223 3.2186L15.0783 3.52611L15.8266 3.56711L16.4416 4.01813L17.0771 4.37689L17.7434 4.65365L18.5019 4.71516L19.1887 4.95091L19.8242 5.28918L20.511 5.52494L21.1158 5.9452L21.7718 6.25271L22.4996 6.42697L23.0839 6.89849L23.6681 7.329L24.4164 7.45201L24.9904 7.92353L25.6875 8.16954L26.1692 8.78456L26.9585 8.88706L27.4403 9.51234L28.1476 9.77885L28.7523 10.2196L29.3674 10.6296L30.0131 10.9986L30.7614 11.1729L31.3662 11.6137L31.9402 12.0954L32.6885 12.2799L33.3445 12.6182L33.9493 13.0385L34.6361 13.3357L35.2511 13.7457L35.8046 14.2993L36.4811 14.617L37.1782 14.8733L37.9162 15.068L38.4697 15.5908L39.1872 15.8061L39.8638 16.1033L40.4993 16.4724L41.1656 16.8004L41.8318 17.1079L42.5699 17.2206L43.1644 17.7434L43.8922 17.8869L44.6097 18.0714L45.2965 18.3174L46.0037 18.5224L46.7418 18.5839L47.4183 18.9529L48.1768 18.7479L48.8943 19.0247L49.6221 18.8709L50.3089 18.9632L50.9854 18.8709L51.6517 18.7172L52.277 18.3994L52.9433 18.2662L53.6095 18.0304L54.2348 17.6921L54.9318 17.4666L55.5161 17.0361L55.9466 16.4416L56.5411 16.0418L56.8999 15.4063L57.4534 14.9348L57.9147 14.3813L57.9352 13.6125L58.2837 12.9975L58.1504 12.4542L58.0479 12.2697L57.9967 12.1364L57.7917 12.5055L58.0684 12.9975L57.8122 13.7355L57.4944 14.4223L56.9101 14.9143L56.3976 15.4268L55.9876 16.0623L55.4443 16.5646L54.7371 16.8414L54.1323 17.2411L53.548 17.7434L52.8715 18.0714L52.154 18.1637L51.4467 18.2047L50.7804 18.5429L50.0629 18.3687L49.3864 18.3584L48.7201 18.2559L48.0231 18.2354L47.367 18.0202L46.506 17.8869L45.85 17.4871L45.1632 17.2514L44.4354 17.1079L43.8307 16.6671L43.1746 16.3596L42.3853 16.3083L41.8216 15.8266L41.1758 15.4883L40.448 15.3243L39.792 14.9963L39.177 14.5863L38.5312 14.2583L37.8957 13.879L37.2192 13.592L36.6759 13.0487L35.9481 12.854L35.4151 12.3107L34.7796 11.9314L34.1748 11.5112L33.529 11.1729L32.8012 10.9474L32.2785 10.4246L31.6839 10.0044L31.0484 9.64559L30.3719 9.36883L29.6954 9.08182L29.0803 8.70256L28.4346 8.37454L27.8503 7.92353L27.266 7.46226L26.5588 7.247L25.8207 7.08299L25.2365 6.62173L24.4882 6.46797L23.9347 5.91445L23.2991 5.53519L22.5611 5.38143L21.9461 4.95091L21.1568 4.93041L20.552 4.4999L19.9268 4.08988L19.1682 4.02838L18.6045 3.48511L17.8972 3.29035L17.2104 3.06484L16.4826 2.93159L15.7241 2.73683L14.9143 2.74708L14.125 2.61383L13.3358 2.51132L12.5567 2.24481L11.7469 2.51132L10.9474 2.24481L10.1376 2.32682L9.3381 2.25506L9.26635 2.29606L8.51807 2.32682H7.75954L7.03177 2.52157L6.25274 2.43957L5.52496 2.65483L4.74593 2.69583L4.0899 3.09559L3.46463 3.52611L2.81886 3.88487L2.27559 4.38714L1.60931 4.78691L1.27105 5.47368L0.840532 6.04771L0.53302 6.69348L0.0922535 7.31875L0.26651 8.08753L0 8.79481L0.174257 9.51234L0.27676 10.2299L0.574022 10.8961L0.779029 11.5829L0.943036 12.3209L1.39405 12.895L1.98858 13.3562L2.23458 14.1148L2.98286 14.3915L3.41338 14.9963L4.0899 15.3038L4.74593 15.6011L5.2892 16.1443L5.96573 16.4211L6.6935 16.5544L7.41103 16.7081L8.10806 16.9336L8.85633 16.8004" fill="#231815"/>
</svg>
